ISO-10303-21;
HEADER;
FILE_DESCRIPTION(('FreeCAD Model'),'2;1');
FILE_NAME('Open CASCADE Shape Model','2025-05-20T11:06:57',('MaykolRey')
  ,('MS4M'),'Open CASCADE STEP processor 7.8','FreeCAD','Unknown');
FILE_SCHEMA(('AUTOMOTIVE_DESIGN { 1 0 10303 214 1 1 1 1 }'));
ENDSEC;
DATA;
#1 = APPLICATION_PROTOCOL_DEFINITION('international standard',
  'automotive_design',2000,#2);
#2 = APPLICATION_CONTEXT(
  'core data for automotive mechanical design processes');
#3 = SHAPE_DEFINITION_REPRESENTATION(#4,#10);
#4 = PRODUCT_DEFINITION_SHAPE('','',#5);
#5 = PRODUCT_DEFINITION('design','',#6,#9);
#6 = PRODUCT_DEFINITION_FORMATION('','',#7);
#7 = PRODUCT('body','body','',(#8));
#8 = PRODUCT_CONTEXT('',#2,'mechanical');
#9 = PRODUCT_DEFINITION_CONTEXT('part definition',#2,'design');
#10 = ADVANCED_BREP_SHAPE_REPRESENTATION('',(#11,#15),#614);
#11 = AXIS2_PLACEMENT_3D('',#12,#13,#14);
#12 = CARTESIAN_POINT('',(0.,0.,0.));
#13 = DIRECTION('',(0.,0.,1.));
#14 = DIRECTION('',(1.,0.,-0.));
#15 = MANIFOLD_SOLID_BREP('',#16);
#16 = CLOSED_SHELL('',(#17,#57,#90,#123,#238,#300,#340,#380,#404,#428,
    #445,#462,#479,#491,#515,#539,#556,#581,#593,#605));
#17 = ADVANCED_FACE('',(#18),#52,.F.);
#18 = FACE_BOUND('',#19,.F.);
#19 = EDGE_LOOP('',(#20,#30,#38,#46));
#20 = ORIENTED_EDGE('',*,*,#21,.T.);
#21 = EDGE_CURVE('',#22,#24,#26,.T.);
#22 = VERTEX_POINT('',#23);
#23 = CARTESIAN_POINT('',(-2.8,-3.3,0.));
#24 = VERTEX_POINT('',#25);
#25 = CARTESIAN_POINT('',(-2.8,-3.3,2.65));
#26 = LINE('',#27,#28);
#27 = CARTESIAN_POINT('',(-2.8,-3.3,0.));
#28 = VECTOR('',#29,1.);
#29 = DIRECTION('',(0.,0.,1.));
#30 = ORIENTED_EDGE('',*,*,#31,.T.);
#31 = EDGE_CURVE('',#24,#32,#34,.T.);
#32 = VERTEX_POINT('',#33);
#33 = CARTESIAN_POINT('',(2.8,-3.3,2.65));
#34 = LINE('',#35,#36);
#35 = CARTESIAN_POINT('',(-2.8,-3.3,2.65));
#36 = VECTOR('',#37,1.);
#37 = DIRECTION('',(1.,0.,0.));
#38 = ORIENTED_EDGE('',*,*,#39,.F.);
#39 = EDGE_CURVE('',#40,#32,#42,.T.);
#40 = VERTEX_POINT('',#41);
#41 = CARTESIAN_POINT('',(2.8,-3.3,0.));
#42 = LINE('',#43,#44);
#43 = CARTESIAN_POINT('',(2.8,-3.3,0.));
#44 = VECTOR('',#45,1.);
#45 = DIRECTION('',(0.,0.,1.));
#46 = ORIENTED_EDGE('',*,*,#47,.F.);
#47 = EDGE_CURVE('',#22,#40,#48,.T.);
#48 = LINE('',#49,#50);
#49 = CARTESIAN_POINT('',(-2.8,-3.3,0.));
#50 = VECTOR('',#51,1.);
#51 = DIRECTION('',(1.,0.,0.));
#52 = PLANE('',#53);
#53 = AXIS2_PLACEMENT_3D('',#54,#55,#56);
#54 = CARTESIAN_POINT('',(-2.8,-3.3,0.));
#55 = DIRECTION('',(0.,1.,0.));
#56 = DIRECTION('',(1.,0.,0.));
#57 = ADVANCED_FACE('',(#58),#85,.T.);
#58 = FACE_BOUND('',#59,.F.);
#59 = EDGE_LOOP('',(#60,#70,#77,#78));
#60 = ORIENTED_EDGE('',*,*,#61,.T.);
#61 = EDGE_CURVE('',#62,#64,#66,.T.);
#62 = VERTEX_POINT('',#63);
#63 = CARTESIAN_POINT('',(-3.3,-2.8,0.));
#64 = VERTEX_POINT('',#65);
#65 = CARTESIAN_POINT('',(-3.3,-2.8,2.65));
#66 = LINE('',#67,#68);
#67 = CARTESIAN_POINT('',(-3.3,-2.8,0.));
#68 = VECTOR('',#69,1.);
#69 = DIRECTION('',(0.,0.,1.));
#70 = ORIENTED_EDGE('',*,*,#71,.T.);
#71 = EDGE_CURVE('',#64,#24,#72,.T.);
#72 = CIRCLE('',#73,0.5);
#73 = AXIS2_PLACEMENT_3D('',#74,#75,#76);
#74 = CARTESIAN_POINT('',(-2.8,-2.8,2.65));
#75 = DIRECTION('',(0.,0.,1.));
#76 = DIRECTION('',(1.,0.,0.));
#77 = ORIENTED_EDGE('',*,*,#21,.F.);
#78 = ORIENTED_EDGE('',*,*,#79,.F.);
#79 = EDGE_CURVE('',#62,#22,#80,.T.);
#80 = CIRCLE('',#81,0.5);
#81 = AXIS2_PLACEMENT_3D('',#82,#83,#84);
#82 = CARTESIAN_POINT('',(-2.8,-2.8,0.));
#83 = DIRECTION('',(0.,0.,1.));
#84 = DIRECTION('',(1.,0.,0.));
#85 = CYLINDRICAL_SURFACE('',#86,0.5);
#86 = AXIS2_PLACEMENT_3D('',#87,#88,#89);
#87 = CARTESIAN_POINT('',(-2.8,-2.8,0.));
#88 = DIRECTION('',(-0.,-0.,-1.));
#89 = DIRECTION('',(1.,0.,0.));
#90 = ADVANCED_FACE('',(#91),#118,.T.);
#91 = FACE_BOUND('',#92,.F.);
#92 = EDGE_LOOP('',(#93,#94,#103,#111));
#93 = ORIENTED_EDGE('',*,*,#39,.T.);
#94 = ORIENTED_EDGE('',*,*,#95,.T.);
#95 = EDGE_CURVE('',#32,#96,#98,.T.);
#96 = VERTEX_POINT('',#97);
#97 = CARTESIAN_POINT('',(3.3,-2.8,2.65));
#98 = CIRCLE('',#99,0.5);
#99 = AXIS2_PLACEMENT_3D('',#100,#101,#102);
#100 = CARTESIAN_POINT('',(2.8,-2.8,2.65));
#101 = DIRECTION('',(0.,0.,1.));
#102 = DIRECTION('',(1.,0.,0.));
#103 = ORIENTED_EDGE('',*,*,#104,.F.);
#104 = EDGE_CURVE('',#105,#96,#107,.T.);
#105 = VERTEX_POINT('',#106);
#106 = CARTESIAN_POINT('',(3.3,-2.8,0.));
#107 = LINE('',#108,#109);
#108 = CARTESIAN_POINT('',(3.3,-2.8,0.));
#109 = VECTOR('',#110,1.);
#110 = DIRECTION('',(0.,0.,1.));
#111 = ORIENTED_EDGE('',*,*,#112,.F.);
#112 = EDGE_CURVE('',#40,#105,#113,.T.);
#113 = CIRCLE('',#114,0.5);
#114 = AXIS2_PLACEMENT_3D('',#115,#116,#117);
#115 = CARTESIAN_POINT('',(2.8,-2.8,0.));
#116 = DIRECTION('',(0.,0.,1.));
#117 = DIRECTION('',(1.,0.,0.));
#118 = CYLINDRICAL_SURFACE('',#119,0.5);
#119 = AXIS2_PLACEMENT_3D('',#120,#121,#122);
#120 = CARTESIAN_POINT('',(2.8,-2.8,0.));
#121 = DIRECTION('',(-0.,-0.,-1.));
#122 = DIRECTION('',(1.,0.,0.));
#123 = ADVANCED_FACE('',(#124),#233,.F.);
#124 = FACE_BOUND('',#125,.F.);
#125 = EDGE_LOOP('',(#126,#127,#128,#129,#137,#145,#153,#161,#169,#178,
    #186,#195,#203,#211,#219,#227));
#126 = ORIENTED_EDGE('',*,*,#79,.T.);
#127 = ORIENTED_EDGE('',*,*,#47,.T.);
#128 = ORIENTED_EDGE('',*,*,#112,.T.);
#129 = ORIENTED_EDGE('',*,*,#130,.T.);
#130 = EDGE_CURVE('',#105,#131,#133,.T.);
#131 = VERTEX_POINT('',#132);
#132 = CARTESIAN_POINT('',(3.3,-1.8,0.));
#133 = LINE('',#134,#135);
#134 = CARTESIAN_POINT('',(3.3,-2.8,0.));
#135 = VECTOR('',#136,1.);
#136 = DIRECTION('',(0.,1.,0.));
#137 = ORIENTED_EDGE('',*,*,#138,.T.);
#138 = EDGE_CURVE('',#131,#139,#141,.T.);
#139 = VERTEX_POINT('',#140);
#140 = CARTESIAN_POINT('',(1.3,-1.8,0.));
#141 = LINE('',#142,#143);
#142 = CARTESIAN_POINT('',(5.3,-1.8,0.));
#143 = VECTOR('',#144,1.);
#144 = DIRECTION('',(-1.,0.,0.));
#145 = ORIENTED_EDGE('',*,*,#146,.T.);
#146 = EDGE_CURVE('',#139,#147,#149,.T.);
#147 = VERTEX_POINT('',#148);
#148 = CARTESIAN_POINT('',(1.3,1.8,0.));
#149 = LINE('',#150,#151);
#150 = CARTESIAN_POINT('',(1.3,-1.8,0.));
#151 = VECTOR('',#152,1.);
#152 = DIRECTION('',(0.,1.,0.));
#153 = ORIENTED_EDGE('',*,*,#154,.T.);
#154 = EDGE_CURVE('',#147,#155,#157,.T.);
#155 = VERTEX_POINT('',#156);
#156 = CARTESIAN_POINT('',(3.3,1.8,0.));
#157 = LINE('',#158,#159);
#158 = CARTESIAN_POINT('',(1.3,1.8,0.));
#159 = VECTOR('',#160,1.);
#160 = DIRECTION('',(1.,0.,0.));
#161 = ORIENTED_EDGE('',*,*,#162,.T.);
#162 = EDGE_CURVE('',#155,#163,#165,.T.);
#163 = VERTEX_POINT('',#164);
#164 = CARTESIAN_POINT('',(3.3,2.8,0.));
#165 = LINE('',#166,#167);
#166 = CARTESIAN_POINT('',(3.3,-2.8,0.));
#167 = VECTOR('',#168,1.);
#168 = DIRECTION('',(0.,1.,0.));
#169 = ORIENTED_EDGE('',*,*,#170,.T.);
#170 = EDGE_CURVE('',#163,#171,#173,.T.);
#171 = VERTEX_POINT('',#172);
#172 = CARTESIAN_POINT('',(2.8,3.3,0.));
#173 = CIRCLE('',#174,0.5);
#174 = AXIS2_PLACEMENT_3D('',#175,#176,#177);
#175 = CARTESIAN_POINT('',(2.8,2.8,0.));
#176 = DIRECTION('',(0.,0.,1.));
#177 = DIRECTION('',(1.,0.,0.));
#178 = ORIENTED_EDGE('',*,*,#179,.T.);
#179 = EDGE_CURVE('',#171,#180,#182,.T.);
#180 = VERTEX_POINT('',#181);
#181 = CARTESIAN_POINT('',(-2.8,3.3,0.));
#182 = LINE('',#183,#184);
#183 = CARTESIAN_POINT('',(2.8,3.3,0.));
#184 = VECTOR('',#185,1.);
#185 = DIRECTION('',(-1.,3.172065784643E-16,0.));
#186 = ORIENTED_EDGE('',*,*,#187,.T.);
#187 = EDGE_CURVE('',#180,#188,#190,.T.);
#188 = VERTEX_POINT('',#189);
#189 = CARTESIAN_POINT('',(-3.3,2.8,0.));
#190 = CIRCLE('',#191,0.5);
#191 = AXIS2_PLACEMENT_3D('',#192,#193,#194);
#192 = CARTESIAN_POINT('',(-2.8,2.8,0.));
#193 = DIRECTION('',(0.,0.,1.));
#194 = DIRECTION('',(1.,0.,0.));
#195 = ORIENTED_EDGE('',*,*,#196,.T.);
#196 = EDGE_CURVE('',#188,#197,#199,.T.);
#197 = VERTEX_POINT('',#198);
#198 = CARTESIAN_POINT('',(-3.3,1.800000000064,0.));
#199 = LINE('',#200,#201);
#200 = CARTESIAN_POINT('',(-3.3,2.8,0.));
#201 = VECTOR('',#202,1.);
#202 = DIRECTION('',(1.586032892322E-16,-1.,0.));
#203 = ORIENTED_EDGE('',*,*,#204,.T.);
#204 = EDGE_CURVE('',#197,#205,#207,.T.);
#205 = VERTEX_POINT('',#206);
#206 = CARTESIAN_POINT('',(-1.3,1.800000000064,0.));
#207 = LINE('',#208,#209);
#208 = CARTESIAN_POINT('',(-5.300000000062,1.800000000064,0.));
#209 = VECTOR('',#210,1.);
#210 = DIRECTION('',(1.,0.,0.));
#211 = ORIENTED_EDGE('',*,*,#212,.T.);
#212 = EDGE_CURVE('',#205,#213,#215,.T.);
#213 = VERTEX_POINT('',#214);
#214 = CARTESIAN_POINT('',(-1.3,-1.8,0.));
#215 = LINE('',#216,#217);
#216 = CARTESIAN_POINT('',(-1.3,1.800000000064,0.));
#217 = VECTOR('',#218,1.);
#218 = DIRECTION('',(0.,-1.,0.));
#219 = ORIENTED_EDGE('',*,*,#220,.T.);
#220 = EDGE_CURVE('',#213,#221,#223,.T.);
#221 = VERTEX_POINT('',#222);
#222 = CARTESIAN_POINT('',(-3.3,-1.8,0.));
#223 = LINE('',#224,#225);
#224 = CARTESIAN_POINT('',(-1.3,-1.8,0.));
#225 = VECTOR('',#226,1.);
#226 = DIRECTION('',(-1.,0.,0.));
#227 = ORIENTED_EDGE('',*,*,#228,.T.);
#228 = EDGE_CURVE('',#221,#62,#229,.T.);
#229 = LINE('',#230,#231);
#230 = CARTESIAN_POINT('',(-3.3,2.8,0.));
#231 = VECTOR('',#232,1.);
#232 = DIRECTION('',(1.586032892322E-16,-1.,0.));
#233 = PLANE('',#234);
#234 = AXIS2_PLACEMENT_3D('',#235,#236,#237);
#235 = CARTESIAN_POINT('',(-8.945046862197E-16,-9.489149469387E-16,0.));
#236 = DIRECTION('',(0.,0.,1.));
#237 = DIRECTION('',(1.,0.,0.));
#238 = ADVANCED_FACE('',(#239,#284),#295,.T.);
#239 = FACE_BOUND('',#240,.T.);
#240 = EDGE_LOOP('',(#241,#242,#243,#251,#260,#268,#277,#283));
#241 = ORIENTED_EDGE('',*,*,#31,.T.);
#242 = ORIENTED_EDGE('',*,*,#95,.T.);
#243 = ORIENTED_EDGE('',*,*,#244,.T.);
#244 = EDGE_CURVE('',#96,#245,#247,.T.);
#245 = VERTEX_POINT('',#246);
#246 = CARTESIAN_POINT('',(3.3,2.8,2.65));
#247 = LINE('',#248,#249);
#248 = CARTESIAN_POINT('',(3.3,-2.8,2.65));
#249 = VECTOR('',#250,1.);
#250 = DIRECTION('',(0.,1.,0.));
#251 = ORIENTED_EDGE('',*,*,#252,.T.);
#252 = EDGE_CURVE('',#245,#253,#255,.T.);
#253 = VERTEX_POINT('',#254);
#254 = CARTESIAN_POINT('',(2.8,3.3,2.65));
#255 = CIRCLE('',#256,0.5);
#256 = AXIS2_PLACEMENT_3D('',#257,#258,#259);
#257 = CARTESIAN_POINT('',(2.8,2.8,2.65));
#258 = DIRECTION('',(0.,0.,1.));
#259 = DIRECTION('',(1.,0.,0.));
#260 = ORIENTED_EDGE('',*,*,#261,.T.);
#261 = EDGE_CURVE('',#253,#262,#264,.T.);
#262 = VERTEX_POINT('',#263);
#263 = CARTESIAN_POINT('',(-2.8,3.3,2.65));
#264 = LINE('',#265,#266);
#265 = CARTESIAN_POINT('',(2.8,3.3,2.65));
#266 = VECTOR('',#267,1.);
#267 = DIRECTION('',(-1.,3.172065784643E-16,0.));
#268 = ORIENTED_EDGE('',*,*,#269,.T.);
#269 = EDGE_CURVE('',#262,#270,#272,.T.);
#270 = VERTEX_POINT('',#271);
#271 = CARTESIAN_POINT('',(-3.3,2.8,2.65));
#272 = CIRCLE('',#273,0.5);
#273 = AXIS2_PLACEMENT_3D('',#274,#275,#276);
#274 = CARTESIAN_POINT('',(-2.8,2.8,2.65));
#275 = DIRECTION('',(0.,0.,1.));
#276 = DIRECTION('',(1.,0.,0.));
#277 = ORIENTED_EDGE('',*,*,#278,.T.);
#278 = EDGE_CURVE('',#270,#64,#279,.T.);
#279 = LINE('',#280,#281);
#280 = CARTESIAN_POINT('',(-3.3,2.8,2.65));
#281 = VECTOR('',#282,1.);
#282 = DIRECTION('',(1.586032892322E-16,-1.,0.));
#283 = ORIENTED_EDGE('',*,*,#71,.T.);
#284 = FACE_BOUND('',#285,.T.);
#285 = EDGE_LOOP('',(#286));
#286 = ORIENTED_EDGE('',*,*,#287,.F.);
#287 = EDGE_CURVE('',#288,#288,#290,.T.);
#288 = VERTEX_POINT('',#289);
#289 = CARTESIAN_POINT('',(-2.25,2.5,2.65));
#290 = CIRCLE('',#291,0.25);
#291 = AXIS2_PLACEMENT_3D('',#292,#293,#294);
#292 = CARTESIAN_POINT('',(-2.5,2.5,2.65));
#293 = DIRECTION('',(0.,0.,1.));
#294 = DIRECTION('',(1.,0.,0.));
#295 = PLANE('',#296);
#296 = AXIS2_PLACEMENT_3D('',#297,#298,#299);
#297 = CARTESIAN_POINT('',(-8.945046862197E-16,-9.489149469387E-16,2.65)
  );
#298 = DIRECTION('',(0.,0.,1.));
#299 = DIRECTION('',(1.,0.,0.));
#300 = ADVANCED_FACE('',(#301),#335,.F.);
#301 = FACE_BOUND('',#302,.F.);
#302 = EDGE_LOOP('',(#303,#304,#310,#311,#312,#313,#321,#329));
#303 = ORIENTED_EDGE('',*,*,#196,.F.);
#304 = ORIENTED_EDGE('',*,*,#305,.T.);
#305 = EDGE_CURVE('',#188,#270,#306,.T.);
#306 = LINE('',#307,#308);
#307 = CARTESIAN_POINT('',(-3.3,2.8,0.));
#308 = VECTOR('',#309,1.);
#309 = DIRECTION('',(0.,0.,1.));
#310 = ORIENTED_EDGE('',*,*,#278,.T.);
#311 = ORIENTED_EDGE('',*,*,#61,.F.);
#312 = ORIENTED_EDGE('',*,*,#228,.F.);
#313 = ORIENTED_EDGE('',*,*,#314,.F.);
#314 = EDGE_CURVE('',#315,#221,#317,.T.);
#315 = VERTEX_POINT('',#316);
#316 = CARTESIAN_POINT('',(-3.3,-1.8,0.15));
#317 = LINE('',#318,#319);
#318 = CARTESIAN_POINT('',(-3.3,-1.8,0.));
#319 = VECTOR('',#320,1.);
#320 = DIRECTION('',(0.,0.,-1.));
#321 = ORIENTED_EDGE('',*,*,#322,.F.);
#322 = EDGE_CURVE('',#323,#315,#325,.T.);
#323 = VERTEX_POINT('',#324);
#324 = CARTESIAN_POINT('',(-3.3,1.800000000064,0.15));
#325 = LINE('',#326,#327);
#326 = CARTESIAN_POINT('',(-3.3,1.400000000008,0.15));
#327 = VECTOR('',#328,1.);
#328 = DIRECTION('',(1.586032892322E-16,-1.,0.));
#329 = ORIENTED_EDGE('',*,*,#330,.F.);
#330 = EDGE_CURVE('',#197,#323,#331,.T.);
#331 = LINE('',#332,#333);
#332 = CARTESIAN_POINT('',(-3.3,1.800000000064,0.));
#333 = VECTOR('',#334,1.);
#334 = DIRECTION('',(0.,0.,1.));
#335 = PLANE('',#336);
#336 = AXIS2_PLACEMENT_3D('',#337,#338,#339);
#337 = CARTESIAN_POINT('',(-3.3,2.8,0.));
#338 = DIRECTION('',(1.,1.586032892322E-16,0.));
#339 = DIRECTION('',(1.586032892322E-16,-1.,0.));
#340 = ADVANCED_FACE('',(#341),#375,.F.);
#341 = FACE_BOUND('',#342,.F.);
#342 = EDGE_LOOP('',(#343,#344,#345,#346,#352,#353,#361,#369));
#343 = ORIENTED_EDGE('',*,*,#130,.F.);
#344 = ORIENTED_EDGE('',*,*,#104,.T.);
#345 = ORIENTED_EDGE('',*,*,#244,.T.);
#346 = ORIENTED_EDGE('',*,*,#347,.F.);
#347 = EDGE_CURVE('',#163,#245,#348,.T.);
#348 = LINE('',#349,#350);
#349 = CARTESIAN_POINT('',(3.3,2.8,0.));
#350 = VECTOR('',#351,1.);
#351 = DIRECTION('',(0.,0.,1.));
#352 = ORIENTED_EDGE('',*,*,#162,.F.);
#353 = ORIENTED_EDGE('',*,*,#354,.F.);
#354 = EDGE_CURVE('',#355,#155,#357,.T.);
#355 = VERTEX_POINT('',#356);
#356 = CARTESIAN_POINT('',(3.3,1.8,0.15));
#357 = LINE('',#358,#359);
#358 = CARTESIAN_POINT('',(3.3,1.8,0.));
#359 = VECTOR('',#360,1.);
#360 = DIRECTION('',(0.,0.,-1.));
#361 = ORIENTED_EDGE('',*,*,#362,.F.);
#362 = EDGE_CURVE('',#363,#355,#365,.T.);
#363 = VERTEX_POINT('',#364);
#364 = CARTESIAN_POINT('',(3.3,-1.8,0.15));
#365 = LINE('',#366,#367);
#366 = CARTESIAN_POINT('',(3.3,-1.399999999992,0.15));
#367 = VECTOR('',#368,1.);
#368 = DIRECTION('',(0.,1.,0.));
#369 = ORIENTED_EDGE('',*,*,#370,.F.);
#370 = EDGE_CURVE('',#131,#363,#371,.T.);
#371 = LINE('',#372,#373);
#372 = CARTESIAN_POINT('',(3.3,-1.8,0.));
#373 = VECTOR('',#374,1.);
#374 = DIRECTION('',(0.,0.,1.));
#375 = PLANE('',#376);
#376 = AXIS2_PLACEMENT_3D('',#377,#378,#379);
#377 = CARTESIAN_POINT('',(3.3,-2.8,0.));
#378 = DIRECTION('',(-1.,0.,0.));
#379 = DIRECTION('',(0.,1.,0.));
#380 = ADVANCED_FACE('',(#381),#399,.F.);
#381 = FACE_BOUND('',#382,.F.);
#382 = EDGE_LOOP('',(#383,#384,#392,#398));
#383 = ORIENTED_EDGE('',*,*,#220,.F.);
#384 = ORIENTED_EDGE('',*,*,#385,.T.);
#385 = EDGE_CURVE('',#213,#386,#388,.T.);
#386 = VERTEX_POINT('',#387);
#387 = CARTESIAN_POINT('',(-1.3,-1.8,0.15));
#388 = LINE('',#389,#390);
#389 = CARTESIAN_POINT('',(-1.3,-1.8,0.));
#390 = VECTOR('',#391,1.);
#391 = DIRECTION('',(0.,0.,1.));
#392 = ORIENTED_EDGE('',*,*,#393,.T.);
#393 = EDGE_CURVE('',#386,#315,#394,.T.);
#394 = LINE('',#395,#396);
#395 = CARTESIAN_POINT('',(-1.3,-1.8,0.15));
#396 = VECTOR('',#397,1.);
#397 = DIRECTION('',(-1.,0.,0.));
#398 = ORIENTED_EDGE('',*,*,#314,.T.);
#399 = PLANE('',#400);
#400 = AXIS2_PLACEMENT_3D('',#401,#402,#403);
#401 = CARTESIAN_POINT('',(-1.3,-1.8,0.));
#402 = DIRECTION('',(0.,-1.,0.));
#403 = DIRECTION('',(-1.,0.,0.));
#404 = ADVANCED_FACE('',(#405),#423,.F.);
#405 = FACE_BOUND('',#406,.F.);
#406 = EDGE_LOOP('',(#407,#415,#421,#422));
#407 = ORIENTED_EDGE('',*,*,#408,.T.);
#408 = EDGE_CURVE('',#205,#409,#411,.T.);
#409 = VERTEX_POINT('',#410);
#410 = CARTESIAN_POINT('',(-1.3,1.800000000064,0.15));
#411 = LINE('',#412,#413);
#412 = CARTESIAN_POINT('',(-1.3,1.800000000064,0.));
#413 = VECTOR('',#414,1.);
#414 = DIRECTION('',(0.,0.,1.));
#415 = ORIENTED_EDGE('',*,*,#416,.T.);
#416 = EDGE_CURVE('',#409,#386,#417,.T.);
#417 = LINE('',#418,#419);
#418 = CARTESIAN_POINT('',(-1.3,1.800000000064,0.15));
#419 = VECTOR('',#420,1.);
#420 = DIRECTION('',(0.,-1.,0.));
#421 = ORIENTED_EDGE('',*,*,#385,.F.);
#422 = ORIENTED_EDGE('',*,*,#212,.F.);
#423 = PLANE('',#424);
#424 = AXIS2_PLACEMENT_3D('',#425,#426,#427);
#425 = CARTESIAN_POINT('',(-1.3,1.800000000064,0.));
#426 = DIRECTION('',(1.,0.,0.));
#427 = DIRECTION('',(0.,-1.,0.));
#428 = ADVANCED_FACE('',(#429),#440,.F.);
#429 = FACE_BOUND('',#430,.F.);
#430 = EDGE_LOOP('',(#431,#432,#433,#439));
#431 = ORIENTED_EDGE('',*,*,#204,.F.);
#432 = ORIENTED_EDGE('',*,*,#330,.T.);
#433 = ORIENTED_EDGE('',*,*,#434,.T.);
#434 = EDGE_CURVE('',#323,#409,#435,.T.);
#435 = LINE('',#436,#437);
#436 = CARTESIAN_POINT('',(-5.300000000062,1.800000000064,0.15));
#437 = VECTOR('',#438,1.);
#438 = DIRECTION('',(1.,0.,0.));
#439 = ORIENTED_EDGE('',*,*,#408,.F.);
#440 = PLANE('',#441);
#441 = AXIS2_PLACEMENT_3D('',#442,#443,#444);
#442 = CARTESIAN_POINT('',(-5.300000000062,1.800000000064,0.));
#443 = DIRECTION('',(0.,1.,0.));
#444 = DIRECTION('',(1.,0.,0.));
#445 = ADVANCED_FACE('',(#446),#457,.T.);
#446 = FACE_BOUND('',#447,.F.);
#447 = EDGE_LOOP('',(#448,#454,#455,#456));
#448 = ORIENTED_EDGE('',*,*,#449,.T.);
#449 = EDGE_CURVE('',#180,#262,#450,.T.);
#450 = LINE('',#451,#452);
#451 = CARTESIAN_POINT('',(-2.8,3.3,0.));
#452 = VECTOR('',#453,1.);
#453 = DIRECTION('',(0.,0.,1.));
#454 = ORIENTED_EDGE('',*,*,#269,.T.);
#455 = ORIENTED_EDGE('',*,*,#305,.F.);
#456 = ORIENTED_EDGE('',*,*,#187,.F.);
#457 = CYLINDRICAL_SURFACE('',#458,0.5);
#458 = AXIS2_PLACEMENT_3D('',#459,#460,#461);
#459 = CARTESIAN_POINT('',(-2.8,2.8,0.));
#460 = DIRECTION('',(-0.,-0.,-1.));
#461 = DIRECTION('',(1.,0.,0.));
#462 = ADVANCED_FACE('',(#463),#474,.F.);
#463 = FACE_BOUND('',#464,.F.);
#464 = EDGE_LOOP('',(#465,#471,#472,#473));
#465 = ORIENTED_EDGE('',*,*,#466,.T.);
#466 = EDGE_CURVE('',#171,#253,#467,.T.);
#467 = LINE('',#468,#469);
#468 = CARTESIAN_POINT('',(2.8,3.3,0.));
#469 = VECTOR('',#470,1.);
#470 = DIRECTION('',(0.,0.,1.));
#471 = ORIENTED_EDGE('',*,*,#261,.T.);
#472 = ORIENTED_EDGE('',*,*,#449,.F.);
#473 = ORIENTED_EDGE('',*,*,#179,.F.);
#474 = PLANE('',#475);
#475 = AXIS2_PLACEMENT_3D('',#476,#477,#478);
#476 = CARTESIAN_POINT('',(2.8,3.3,0.));
#477 = DIRECTION('',(-3.172065784643E-16,-1.,0.));
#478 = DIRECTION('',(-1.,3.172065784643E-16,0.));
#479 = ADVANCED_FACE('',(#480),#486,.T.);
#480 = FACE_BOUND('',#481,.F.);
#481 = EDGE_LOOP('',(#482,#483,#484,#485));
#482 = ORIENTED_EDGE('',*,*,#347,.T.);
#483 = ORIENTED_EDGE('',*,*,#252,.T.);
#484 = ORIENTED_EDGE('',*,*,#466,.F.);
#485 = ORIENTED_EDGE('',*,*,#170,.F.);
#486 = CYLINDRICAL_SURFACE('',#487,0.5);
#487 = AXIS2_PLACEMENT_3D('',#488,#489,#490);
#488 = CARTESIAN_POINT('',(2.8,2.8,0.));
#489 = DIRECTION('',(-0.,-0.,-1.));
#490 = DIRECTION('',(1.,0.,0.));
#491 = ADVANCED_FACE('',(#492),#510,.F.);
#492 = FACE_BOUND('',#493,.F.);
#493 = EDGE_LOOP('',(#494,#495,#503,#509));
#494 = ORIENTED_EDGE('',*,*,#154,.F.);
#495 = ORIENTED_EDGE('',*,*,#496,.T.);
#496 = EDGE_CURVE('',#147,#497,#499,.T.);
#497 = VERTEX_POINT('',#498);
#498 = CARTESIAN_POINT('',(1.3,1.8,0.15));
#499 = LINE('',#500,#501);
#500 = CARTESIAN_POINT('',(1.3,1.8,0.));
#501 = VECTOR('',#502,1.);
#502 = DIRECTION('',(0.,0.,1.));
#503 = ORIENTED_EDGE('',*,*,#504,.T.);
#504 = EDGE_CURVE('',#497,#355,#505,.T.);
#505 = LINE('',#506,#507);
#506 = CARTESIAN_POINT('',(1.3,1.8,0.15));
#507 = VECTOR('',#508,1.);
#508 = DIRECTION('',(1.,0.,0.));
#509 = ORIENTED_EDGE('',*,*,#354,.T.);
#510 = PLANE('',#511);
#511 = AXIS2_PLACEMENT_3D('',#512,#513,#514);
#512 = CARTESIAN_POINT('',(1.3,1.8,0.));
#513 = DIRECTION('',(0.,1.,0.));
#514 = DIRECTION('',(1.,0.,0.));
#515 = ADVANCED_FACE('',(#516),#534,.F.);
#516 = FACE_BOUND('',#517,.F.);
#517 = EDGE_LOOP('',(#518,#526,#532,#533));
#518 = ORIENTED_EDGE('',*,*,#519,.T.);
#519 = EDGE_CURVE('',#139,#520,#522,.T.);
#520 = VERTEX_POINT('',#521);
#521 = CARTESIAN_POINT('',(1.3,-1.8,0.15));
#522 = LINE('',#523,#524);
#523 = CARTESIAN_POINT('',(1.3,-1.8,0.));
#524 = VECTOR('',#525,1.);
#525 = DIRECTION('',(0.,0.,1.));
#526 = ORIENTED_EDGE('',*,*,#527,.T.);
#527 = EDGE_CURVE('',#520,#497,#528,.T.);
#528 = LINE('',#529,#530);
#529 = CARTESIAN_POINT('',(1.3,-1.8,0.15));
#530 = VECTOR('',#531,1.);
#531 = DIRECTION('',(0.,1.,0.));
#532 = ORIENTED_EDGE('',*,*,#496,.F.);
#533 = ORIENTED_EDGE('',*,*,#146,.F.);
#534 = PLANE('',#535);
#535 = AXIS2_PLACEMENT_3D('',#536,#537,#538);
#536 = CARTESIAN_POINT('',(1.3,-1.8,0.));
#537 = DIRECTION('',(-1.,0.,0.));
#538 = DIRECTION('',(0.,1.,0.));
#539 = ADVANCED_FACE('',(#540),#551,.F.);
#540 = FACE_BOUND('',#541,.F.);
#541 = EDGE_LOOP('',(#542,#543,#544,#550));
#542 = ORIENTED_EDGE('',*,*,#138,.F.);
#543 = ORIENTED_EDGE('',*,*,#370,.T.);
#544 = ORIENTED_EDGE('',*,*,#545,.T.);
#545 = EDGE_CURVE('',#363,#520,#546,.T.);
#546 = LINE('',#547,#548);
#547 = CARTESIAN_POINT('',(5.3,-1.8,0.15));
#548 = VECTOR('',#549,1.);
#549 = DIRECTION('',(-1.,0.,0.));
#550 = ORIENTED_EDGE('',*,*,#519,.F.);
#551 = PLANE('',#552);
#552 = AXIS2_PLACEMENT_3D('',#553,#554,#555);
#553 = CARTESIAN_POINT('',(5.3,-1.8,0.));
#554 = DIRECTION('',(0.,-1.,0.));
#555 = DIRECTION('',(-1.,0.,0.));
#556 = ADVANCED_FACE('',(#557),#576,.F.);
#557 = FACE_BOUND('',#558,.F.);
#558 = EDGE_LOOP('',(#559,#567,#574,#575));
#559 = ORIENTED_EDGE('',*,*,#560,.T.);
#560 = EDGE_CURVE('',#288,#561,#563,.T.);
#561 = VERTEX_POINT('',#562);
#562 = CARTESIAN_POINT('',(-2.25,2.5,2.55));
#563 = LINE('',#564,#565);
#564 = CARTESIAN_POINT('',(-2.25,2.5,2.65));
#565 = VECTOR('',#566,1.);
#566 = DIRECTION('',(-0.,-0.,-1.));
#567 = ORIENTED_EDGE('',*,*,#568,.T.);
#568 = EDGE_CURVE('',#561,#561,#569,.T.);
#569 = CIRCLE('',#570,0.25);
#570 = AXIS2_PLACEMENT_3D('',#571,#572,#573);
#571 = CARTESIAN_POINT('',(-2.5,2.5,2.55));
#572 = DIRECTION('',(0.,0.,1.));
#573 = DIRECTION('',(1.,0.,0.));
#574 = ORIENTED_EDGE('',*,*,#560,.F.);
#575 = ORIENTED_EDGE('',*,*,#287,.F.);
#576 = CYLINDRICAL_SURFACE('',#577,0.25);
#577 = AXIS2_PLACEMENT_3D('',#578,#579,#580);
#578 = CARTESIAN_POINT('',(-2.5,2.5,2.65));
#579 = DIRECTION('',(0.,0.,1.));
#580 = DIRECTION('',(1.,0.,0.));
#581 = ADVANCED_FACE('',(#582),#588,.F.);
#582 = FACE_BOUND('',#583,.F.);
#583 = EDGE_LOOP('',(#584,#585,#586,#587));
#584 = ORIENTED_EDGE('',*,*,#434,.F.);
#585 = ORIENTED_EDGE('',*,*,#322,.T.);
#586 = ORIENTED_EDGE('',*,*,#393,.F.);
#587 = ORIENTED_EDGE('',*,*,#416,.F.);
#588 = PLANE('',#589);
#589 = AXIS2_PLACEMENT_3D('',#590,#591,#592);
#590 = CARTESIAN_POINT('',(-4.260673685173E-11,1.587614542742E-11,0.15)
  );
#591 = DIRECTION('',(0.,0.,1.));
#592 = DIRECTION('',(1.,0.,0.));
#593 = ADVANCED_FACE('',(#594),#600,.F.);
#594 = FACE_BOUND('',#595,.F.);
#595 = EDGE_LOOP('',(#596,#597,#598,#599));
#596 = ORIENTED_EDGE('',*,*,#504,.F.);
#597 = ORIENTED_EDGE('',*,*,#527,.F.);
#598 = ORIENTED_EDGE('',*,*,#545,.F.);
#599 = ORIENTED_EDGE('',*,*,#362,.T.);
#600 = PLANE('',#601);
#601 = AXIS2_PLACEMENT_3D('',#602,#603,#604);
#602 = CARTESIAN_POINT('',(-4.260673685173E-11,1.587614542742E-11,0.15)
  );
#603 = DIRECTION('',(0.,0.,1.));
#604 = DIRECTION('',(1.,0.,0.));
#605 = ADVANCED_FACE('',(#606),#609,.T.);
#606 = FACE_BOUND('',#607,.T.);
#607 = EDGE_LOOP('',(#608));
#608 = ORIENTED_EDGE('',*,*,#568,.T.);
#609 = PLANE('',#610);
#610 = AXIS2_PLACEMENT_3D('',#611,#612,#613);
#611 = CARTESIAN_POINT('',(-2.5,2.5,2.55));
#612 = DIRECTION('',(0.,0.,1.));
#613 = DIRECTION('',(1.,0.,0.));
#614 = ( GEOMETRIC_REPRESENTATION_CONTEXT(3) 
GLOBAL_UNCERTAINTY_ASSIGNED_CONTEXT((#618)) GLOBAL_UNIT_ASSIGNED_CONTEXT
((#615,#616,#617)) REPRESENTATION_CONTEXT('Context #1',
  '3D Context with UNIT and UNCERTAINTY') );
#615 = ( LENGTH_UNIT() NAMED_UNIT(*) SI_UNIT(.MILLI.,.METRE.) );
#616 = ( NAMED_UNIT(*) PLANE_ANGLE_UNIT() SI_UNIT($,.RADIAN.) );
#617 = ( NAMED_UNIT(*) SI_UNIT($,.STERADIAN.) SOLID_ANGLE_UNIT() );
#618 = UNCERTAINTY_MEASURE_WITH_UNIT(LENGTH_MEASURE(1.E-06),#615,
  'distance_accuracy_value','confusion accuracy');
#619 = PRODUCT_RELATED_PRODUCT_CATEGORY('part',$,(#7));
#620 = SHAPE_DEFINITION_REPRESENTATION(#621,#627);
#621 = PRODUCT_DEFINITION_SHAPE('','',#622);
#622 = PRODUCT_DEFINITION('design','',#623,#626);
#623 = PRODUCT_DEFINITION_FORMATION('','',#624);
#624 = PRODUCT('pad_1','pad_1','',(#625));
#625 = PRODUCT_CONTEXT('',#2,'mechanical');
#626 = PRODUCT_DEFINITION_CONTEXT('part definition',#2,'design');
#627 = ADVANCED_BREP_SHAPE_REPRESENTATION('',(#11,#628),#1151);
#628 = MANIFOLD_SOLID_BREP('',#629);
#629 = CLOSED_SHELL('',(#630,#670,#726,#750,#799,#816,#906,#918,#1003,
    #1020,#1037,#1059,#1076,#1093,#1110,#1122,#1139));
#630 = ADVANCED_FACE('',(#631),#665,.F.);
#631 = FACE_BOUND('',#632,.F.);
#632 = EDGE_LOOP('',(#633,#643,#651,#659));
#633 = ORIENTED_EDGE('',*,*,#634,.F.);
#634 = EDGE_CURVE('',#635,#637,#639,.T.);
#635 = VERTEX_POINT('',#636);
#636 = CARTESIAN_POINT('',(1.48,1.5,0.15));
#637 = VERTEX_POINT('',#638);
#638 = CARTESIAN_POINT('',(1.48,1.5,-0.15));
#639 = LINE('',#640,#641);
#640 = CARTESIAN_POINT('',(1.48,1.5,0.41123));
#641 = VECTOR('',#642,1.);
#642 = DIRECTION('',(0.,0.,-1.));
#643 = ORIENTED_EDGE('',*,*,#644,.T.);
#644 = EDGE_CURVE('',#635,#645,#647,.T.);
#645 = VERTEX_POINT('',#646);
#646 = CARTESIAN_POINT('',(1.48,-1.5,0.15));
#647 = LINE('',#648,#649);
#648 = CARTESIAN_POINT('',(1.48,2.15,0.15));
#649 = VECTOR('',#650,1.);
#650 = DIRECTION('',(0.,-1.,2.22044604925E-16));
#651 = ORIENTED_EDGE('',*,*,#652,.T.);
#652 = EDGE_CURVE('',#645,#653,#655,.T.);
#653 = VERTEX_POINT('',#654);
#654 = CARTESIAN_POINT('',(1.48,-1.5,-0.15));
#655 = LINE('',#656,#657);
#656 = CARTESIAN_POINT('',(1.48,-1.5,0.41123));
#657 = VECTOR('',#658,1.);
#658 = DIRECTION('',(0.,0.,-1.));
#659 = ORIENTED_EDGE('',*,*,#660,.F.);
#660 = EDGE_CURVE('',#637,#653,#661,.T.);
#661 = LINE('',#662,#663);
#662 = CARTESIAN_POINT('',(1.48,2.15,-0.15));
#663 = VECTOR('',#664,1.);
#664 = DIRECTION('',(0.,-1.,2.22044604925E-16));
#665 = PLANE('',#666);
#666 = AXIS2_PLACEMENT_3D('',#667,#668,#669);
#667 = CARTESIAN_POINT('',(1.48,2.15,0.15));
#668 = DIRECTION('',(1.,0.,0.));
#669 = DIRECTION('',(0.,-2.22044604925E-16,-1.));
#670 = ADVANCED_FACE('',(#671),#721,.T.);
#671 = FACE_BOUND('',#672,.F.);
#672 = EDGE_LOOP('',(#673,#683,#691,#699,#705,#706,#714));
#673 = ORIENTED_EDGE('',*,*,#674,.F.);
#674 = EDGE_CURVE('',#675,#677,#679,.T.);
#675 = VERTEX_POINT('',#676);
#676 = CARTESIAN_POINT('',(3.48,1.5,0.67246));
#677 = VERTEX_POINT('',#678);
#678 = CARTESIAN_POINT('',(3.48,1.5,-5.E-02));
#679 = LINE('',#680,#681);
#680 = CARTESIAN_POINT('',(3.48,1.5,0.67246));
#681 = VECTOR('',#682,1.);
#682 = DIRECTION('',(-0.,-0.,-1.));
#683 = ORIENTED_EDGE('',*,*,#684,.T.);
#684 = EDGE_CURVE('',#675,#685,#687,.T.);
#685 = VERTEX_POINT('',#686);
#686 = CARTESIAN_POINT('',(3.30322,1.5,0.67246));
#687 = LINE('',#688,#689);
#688 = CARTESIAN_POINT('',(3.48,1.5,0.67246));
#689 = VECTOR('',#690,1.);
#690 = DIRECTION('',(-1.,0.,0.));
#691 = ORIENTED_EDGE('',*,*,#692,.T.);
#692 = EDGE_CURVE('',#685,#693,#695,.T.);
#693 = VERTEX_POINT('',#694);
#694 = CARTESIAN_POINT('',(3.30322,1.5,0.15));
#695 = LINE('',#696,#697);
#696 = CARTESIAN_POINT('',(3.30322,1.5,1.029955));
#697 = VECTOR('',#698,1.);
#698 = DIRECTION('',(0.,0.,-1.));
#699 = ORIENTED_EDGE('',*,*,#700,.T.);
#700 = EDGE_CURVE('',#693,#635,#701,.T.);
#701 = LINE('',#702,#703);
#702 = CARTESIAN_POINT('',(3.39161,1.5,0.15));
#703 = VECTOR('',#704,1.);
#704 = DIRECTION('',(-1.,0.,0.));
#705 = ORIENTED_EDGE('',*,*,#634,.T.);
#706 = ORIENTED_EDGE('',*,*,#707,.T.);
#707 = EDGE_CURVE('',#637,#708,#710,.T.);
#708 = VERTEX_POINT('',#709);
#709 = CARTESIAN_POINT('',(3.38,1.5,-0.15));
#710 = LINE('',#711,#712);
#711 = CARTESIAN_POINT('',(2.48,1.5,-0.15));
#712 = VECTOR('',#713,1.);
#713 = DIRECTION('',(1.,0.,0.));
#714 = ORIENTED_EDGE('',*,*,#715,.F.);
#715 = EDGE_CURVE('',#677,#708,#716,.T.);
#716 = CIRCLE('',#717,0.1);
#717 = AXIS2_PLACEMENT_3D('',#718,#719,#720);
#718 = CARTESIAN_POINT('',(3.38,1.5,-5.E-02));
#719 = DIRECTION('',(0.,1.,-2.22044604925E-16));
#720 = DIRECTION('',(1.,0.,0.));
#721 = PLANE('',#722);
#722 = AXIS2_PLACEMENT_3D('',#723,#724,#725);
#723 = CARTESIAN_POINT('',(3.48,1.5,0.67246));
#724 = DIRECTION('',(0.,1.,0.));
#725 = DIRECTION('',(0.,0.,1.));
#726 = ADVANCED_FACE('',(#727),#745,.F.);
#727 = FACE_BOUND('',#728,.F.);
#728 = EDGE_LOOP('',(#729,#730,#731,#739));
#729 = ORIENTED_EDGE('',*,*,#707,.F.);
#730 = ORIENTED_EDGE('',*,*,#660,.T.);
#731 = ORIENTED_EDGE('',*,*,#732,.T.);
#732 = EDGE_CURVE('',#653,#733,#735,.T.);
#733 = VERTEX_POINT('',#734);
#734 = CARTESIAN_POINT('',(3.38,-1.5,-0.15));
#735 = LINE('',#736,#737);
#736 = CARTESIAN_POINT('',(2.48,-1.5,-0.15));
#737 = VECTOR('',#738,1.);
#738 = DIRECTION('',(1.,0.,0.));
#739 = ORIENTED_EDGE('',*,*,#740,.F.);
#740 = EDGE_CURVE('',#708,#733,#741,.T.);
#741 = LINE('',#742,#743);
#742 = CARTESIAN_POINT('',(3.38,2.15,-0.15));
#743 = VECTOR('',#744,1.);
#744 = DIRECTION('',(0.,-1.,2.22044604925E-16));
#745 = PLANE('',#746);
#746 = AXIS2_PLACEMENT_3D('',#747,#748,#749);
#747 = CARTESIAN_POINT('',(1.48,2.15,-0.15));
#748 = DIRECTION('',(0.,2.22044604925E-16,1.));
#749 = DIRECTION('',(1.,0.,0.));
#750 = ADVANCED_FACE('',(#751),#794,.T.);
#751 = FACE_BOUND('',#752,.T.);
#752 = EDGE_LOOP('',(#753,#763,#771,#779,#785,#786,#787));
#753 = ORIENTED_EDGE('',*,*,#754,.F.);
#754 = EDGE_CURVE('',#755,#757,#759,.T.);
#755 = VERTEX_POINT('',#756);
#756 = CARTESIAN_POINT('',(3.48,-1.5,0.67246));
#757 = VERTEX_POINT('',#758);
#758 = CARTESIAN_POINT('',(3.48,-1.5,-5.E-02));
#759 = LINE('',#760,#761);
#760 = CARTESIAN_POINT('',(3.48,-1.5,0.67246));
#761 = VECTOR('',#762,1.);
#762 = DIRECTION('',(0.,0.,-1.));
#763 = ORIENTED_EDGE('',*,*,#764,.T.);
#764 = EDGE_CURVE('',#755,#765,#767,.T.);
#765 = VERTEX_POINT('',#766);
#766 = CARTESIAN_POINT('',(3.30322,-1.5,0.67246));
#767 = LINE('',#768,#769);
#768 = CARTESIAN_POINT('',(3.48,-1.5,0.67246));
#769 = VECTOR('',#770,1.);
#770 = DIRECTION('',(-1.,-0.,-0.));
#771 = ORIENTED_EDGE('',*,*,#772,.T.);
#772 = EDGE_CURVE('',#765,#773,#775,.T.);
#773 = VERTEX_POINT('',#774);
#774 = CARTESIAN_POINT('',(3.30322,-1.5,0.15));
#775 = LINE('',#776,#777);
#776 = CARTESIAN_POINT('',(3.30322,-1.5,1.029955));
#777 = VECTOR('',#778,1.);
#778 = DIRECTION('',(0.,0.,-1.));
#779 = ORIENTED_EDGE('',*,*,#780,.T.);
#780 = EDGE_CURVE('',#773,#645,#781,.T.);
#781 = LINE('',#782,#783);
#782 = CARTESIAN_POINT('',(3.39161,-1.5,0.15));
#783 = VECTOR('',#784,1.);
#784 = DIRECTION('',(-1.,0.,0.));
#785 = ORIENTED_EDGE('',*,*,#652,.T.);
#786 = ORIENTED_EDGE('',*,*,#732,.T.);
#787 = ORIENTED_EDGE('',*,*,#788,.F.);
#788 = EDGE_CURVE('',#757,#733,#789,.T.);
#789 = CIRCLE('',#790,0.1);
#790 = AXIS2_PLACEMENT_3D('',#791,#792,#793);
#791 = CARTESIAN_POINT('',(3.38,-1.5,-5.E-02));
#792 = DIRECTION('',(0.,1.,-2.22044604925E-16));
#793 = DIRECTION('',(1.,0.,0.));
#794 = PLANE('',#795);
#795 = AXIS2_PLACEMENT_3D('',#796,#797,#798);
#796 = CARTESIAN_POINT('',(3.48,-1.5,0.67246));
#797 = DIRECTION('',(0.,-1.,0.));
#798 = DIRECTION('',(0.,0.,-1.));
#799 = ADVANCED_FACE('',(#800),#811,.F.);
#800 = FACE_BOUND('',#801,.F.);
#801 = EDGE_LOOP('',(#802,#803,#809,#810));
#802 = ORIENTED_EDGE('',*,*,#700,.F.);
#803 = ORIENTED_EDGE('',*,*,#804,.T.);
#804 = EDGE_CURVE('',#693,#773,#805,.T.);
#805 = LINE('',#806,#807);
#806 = CARTESIAN_POINT('',(3.30322,2.15,0.15));
#807 = VECTOR('',#808,1.);
#808 = DIRECTION('',(0.,-1.,2.22044604925E-16));
#809 = ORIENTED_EDGE('',*,*,#780,.T.);
#810 = ORIENTED_EDGE('',*,*,#644,.F.);
#811 = PLANE('',#812);
#812 = AXIS2_PLACEMENT_3D('',#813,#814,#815);
#813 = CARTESIAN_POINT('',(3.30322,2.15,0.15));
#814 = DIRECTION('',(-0.,-2.22044604925E-16,-1.));
#815 = DIRECTION('',(-1.,0.,0.));
#816 = ADVANCED_FACE('',(#817),#901,.F.);
#817 = FACE_BOUND('',#818,.F.);
#818 = EDGE_LOOP('',(#819,#829,#838,#846,#853,#854,#860,#861,#870,#878,
    #887,#895));
#819 = ORIENTED_EDGE('',*,*,#820,.F.);
#820 = EDGE_CURVE('',#821,#823,#825,.T.);
#821 = VERTEX_POINT('',#822);
#822 = CARTESIAN_POINT('',(3.48,2.15,1.18745));
#823 = VERTEX_POINT('',#824);
#824 = CARTESIAN_POINT('',(3.48,2.15,1.38745));
#825 = LINE('',#826,#827);
#826 = CARTESIAN_POINT('',(3.48,2.15,-5.E-02));
#827 = VECTOR('',#828,1.);
#828 = DIRECTION('',(0.,2.22044604925E-16,1.));
#829 = ORIENTED_EDGE('',*,*,#830,.T.);
#830 = EDGE_CURVE('',#821,#831,#833,.T.);
#831 = VERTEX_POINT('',#832);
#832 = CARTESIAN_POINT('',(3.48,1.77865,0.8161));
#833 = CIRCLE('',#834,0.37135);
#834 = AXIS2_PLACEMENT_3D('',#835,#836,#837);
#835 = CARTESIAN_POINT('',(3.48,1.77865,1.18745));
#836 = DIRECTION('',(-1.,0.,0.));
#837 = DIRECTION('',(-0.,-1.,-0.));
#838 = ORIENTED_EDGE('',*,*,#839,.T.);
#839 = EDGE_CURVE('',#831,#840,#842,.T.);
#840 = VERTEX_POINT('',#841);
#841 = CARTESIAN_POINT('',(3.48,1.64364,0.8161));
#842 = LINE('',#843,#844);
#843 = CARTESIAN_POINT('',(3.48,1.77865,0.8161));
#844 = VECTOR('',#845,1.);
#845 = DIRECTION('',(-0.,-1.,-0.));
#846 = ORIENTED_EDGE('',*,*,#847,.F.);
#847 = EDGE_CURVE('',#675,#840,#848,.T.);
#848 = CIRCLE('',#849,0.14364);
#849 = AXIS2_PLACEMENT_3D('',#850,#851,#852);
#850 = CARTESIAN_POINT('',(3.48,1.64364,0.67246));
#851 = DIRECTION('',(-1.,0.,0.));
#852 = DIRECTION('',(-0.,-1.,-0.));
#853 = ORIENTED_EDGE('',*,*,#674,.T.);
#854 = ORIENTED_EDGE('',*,*,#855,.T.);
#855 = EDGE_CURVE('',#677,#757,#856,.T.);
#856 = LINE('',#857,#858);
#857 = CARTESIAN_POINT('',(3.48,2.15,-5.E-02));
#858 = VECTOR('',#859,1.);
#859 = DIRECTION('',(0.,-1.,2.22044604925E-16));
#860 = ORIENTED_EDGE('',*,*,#754,.F.);
#861 = ORIENTED_EDGE('',*,*,#862,.T.);
#862 = EDGE_CURVE('',#755,#863,#865,.T.);
#863 = VERTEX_POINT('',#864);
#864 = CARTESIAN_POINT('',(3.48,-1.64364,0.8161));
#865 = CIRCLE('',#866,0.14364);
#866 = AXIS2_PLACEMENT_3D('',#867,#868,#869);
#867 = CARTESIAN_POINT('',(3.48,-1.64364,0.67246));
#868 = DIRECTION('',(1.,0.,0.));
#869 = DIRECTION('',(0.,1.,0.));
#870 = ORIENTED_EDGE('',*,*,#871,.F.);
#871 = EDGE_CURVE('',#872,#863,#874,.T.);
#872 = VERTEX_POINT('',#873);
#873 = CARTESIAN_POINT('',(3.48,-1.77865,0.8161));
#874 = LINE('',#875,#876);
#875 = CARTESIAN_POINT('',(3.48,-1.77865,0.8161));
#876 = VECTOR('',#877,1.);
#877 = DIRECTION('',(0.,1.,0.));
#878 = ORIENTED_EDGE('',*,*,#879,.F.);
#879 = EDGE_CURVE('',#880,#872,#882,.T.);
#880 = VERTEX_POINT('',#881);
#881 = CARTESIAN_POINT('',(3.48,-2.15,1.18745));
#882 = CIRCLE('',#883,0.37135);
#883 = AXIS2_PLACEMENT_3D('',#884,#885,#886);
#884 = CARTESIAN_POINT('',(3.48,-1.77865,1.18745));
#885 = DIRECTION('',(1.,0.,0.));
#886 = DIRECTION('',(0.,1.,0.));
#887 = ORIENTED_EDGE('',*,*,#888,.T.);
#888 = EDGE_CURVE('',#880,#889,#891,.T.);
#889 = VERTEX_POINT('',#890);
#890 = CARTESIAN_POINT('',(3.48,-2.15,1.38745));
#891 = LINE('',#892,#893);
#892 = CARTESIAN_POINT('',(3.48,-2.15,-5.E-02));
#893 = VECTOR('',#894,1.);
#894 = DIRECTION('',(0.,2.22044604925E-16,1.));
#895 = ORIENTED_EDGE('',*,*,#896,.F.);
#896 = EDGE_CURVE('',#823,#889,#897,.T.);
#897 = LINE('',#898,#899);
#898 = CARTESIAN_POINT('',(3.48,2.15,1.38745));
#899 = VECTOR('',#900,1.);
#900 = DIRECTION('',(0.,-1.,2.22044604925E-16));
#901 = PLANE('',#902);
#902 = AXIS2_PLACEMENT_3D('',#903,#904,#905);
#903 = CARTESIAN_POINT('',(3.48,2.15,-5.E-02));
#904 = DIRECTION('',(-1.,0.,0.));
#905 = DIRECTION('',(0.,2.22044604925E-16,1.));
#906 = ADVANCED_FACE('',(#907),#913,.T.);
#907 = FACE_BOUND('',#908,.F.);
#908 = EDGE_LOOP('',(#909,#910,#911,#912));
#909 = ORIENTED_EDGE('',*,*,#715,.T.);
#910 = ORIENTED_EDGE('',*,*,#740,.T.);
#911 = ORIENTED_EDGE('',*,*,#788,.F.);
#912 = ORIENTED_EDGE('',*,*,#855,.F.);
#913 = CYLINDRICAL_SURFACE('',#914,0.1);
#914 = AXIS2_PLACEMENT_3D('',#915,#916,#917);
#915 = CARTESIAN_POINT('',(3.38,2.15,-5.E-02));
#916 = DIRECTION('',(0.,1.,-2.22044604925E-16));
#917 = DIRECTION('',(1.,0.,0.));
#918 = ADVANCED_FACE('',(#919),#998,.F.);
#919 = FACE_BOUND('',#920,.F.);
#920 = EDGE_LOOP('',(#921,#931,#939,#947,#956,#964,#971,#972,#973,#974,
    #983,#991));
#921 = ORIENTED_EDGE('',*,*,#922,.F.);
#922 = EDGE_CURVE('',#923,#925,#927,.T.);
#923 = VERTEX_POINT('',#924);
#924 = CARTESIAN_POINT('',(3.30322,2.15,1.38745));
#925 = VERTEX_POINT('',#926);
#926 = CARTESIAN_POINT('',(3.30322,2.15,1.18745));
#927 = LINE('',#928,#929);
#928 = CARTESIAN_POINT('',(3.30322,2.15,1.38745));
#929 = VECTOR('',#930,1.);
#930 = DIRECTION('',(0.,-2.22044604925E-16,-1.));
#931 = ORIENTED_EDGE('',*,*,#932,.T.);
#932 = EDGE_CURVE('',#923,#933,#935,.T.);
#933 = VERTEX_POINT('',#934);
#934 = CARTESIAN_POINT('',(3.30322,-2.15,1.38745));
#935 = LINE('',#936,#937);
#936 = CARTESIAN_POINT('',(3.30322,2.15,1.38745));
#937 = VECTOR('',#938,1.);
#938 = DIRECTION('',(0.,-1.,2.22044604925E-16));
#939 = ORIENTED_EDGE('',*,*,#940,.T.);
#940 = EDGE_CURVE('',#933,#941,#943,.T.);
#941 = VERTEX_POINT('',#942);
#942 = CARTESIAN_POINT('',(3.30322,-2.15,1.18745));
#943 = LINE('',#944,#945);
#944 = CARTESIAN_POINT('',(3.30322,-2.15,1.38745));
#945 = VECTOR('',#946,1.);
#946 = DIRECTION('',(0.,-2.22044604925E-16,-1.));
#947 = ORIENTED_EDGE('',*,*,#948,.T.);
#948 = EDGE_CURVE('',#941,#949,#951,.T.);
#949 = VERTEX_POINT('',#950);
#950 = CARTESIAN_POINT('',(3.30322,-1.77865,0.8161));
#951 = CIRCLE('',#952,0.37135);
#952 = AXIS2_PLACEMENT_3D('',#953,#954,#955);
#953 = CARTESIAN_POINT('',(3.30322,-1.77865,1.18745));
#954 = DIRECTION('',(1.,0.,0.));
#955 = DIRECTION('',(0.,1.,0.));
#956 = ORIENTED_EDGE('',*,*,#957,.T.);
#957 = EDGE_CURVE('',#949,#958,#960,.T.);
#958 = VERTEX_POINT('',#959);
#959 = CARTESIAN_POINT('',(3.30322,-1.64364,0.8161));
#960 = LINE('',#961,#962);
#961 = CARTESIAN_POINT('',(3.30322,0.185675,0.8161));
#962 = VECTOR('',#963,1.);
#963 = DIRECTION('',(0.,1.,0.));
#964 = ORIENTED_EDGE('',*,*,#965,.F.);
#965 = EDGE_CURVE('',#765,#958,#966,.T.);
#966 = CIRCLE('',#967,0.14364);
#967 = AXIS2_PLACEMENT_3D('',#968,#969,#970);
#968 = CARTESIAN_POINT('',(3.30322,-1.64364,0.67246));
#969 = DIRECTION('',(1.,0.,0.));
#970 = DIRECTION('',(0.,1.,0.));
#971 = ORIENTED_EDGE('',*,*,#772,.T.);
#972 = ORIENTED_EDGE('',*,*,#804,.F.);
#973 = ORIENTED_EDGE('',*,*,#692,.F.);
#974 = ORIENTED_EDGE('',*,*,#975,.F.);
#975 = EDGE_CURVE('',#976,#685,#978,.T.);
#976 = VERTEX_POINT('',#977);
#977 = CARTESIAN_POINT('',(3.30322,1.64364,0.8161));
#978 = CIRCLE('',#979,0.14364);
#979 = AXIS2_PLACEMENT_3D('',#980,#981,#982);
#980 = CARTESIAN_POINT('',(3.30322,1.64364,0.67246));
#981 = DIRECTION('',(1.,0.,0.));
#982 = DIRECTION('',(0.,-1.,0.));
#983 = ORIENTED_EDGE('',*,*,#984,.F.);
#984 = EDGE_CURVE('',#985,#976,#987,.T.);
#985 = VERTEX_POINT('',#986);
#986 = CARTESIAN_POINT('',(3.30322,1.77865,0.8161));
#987 = LINE('',#988,#989);
#988 = CARTESIAN_POINT('',(3.30322,1.964325,0.8161));
#989 = VECTOR('',#990,1.);
#990 = DIRECTION('',(0.,-1.,0.));
#991 = ORIENTED_EDGE('',*,*,#992,.T.);
#992 = EDGE_CURVE('',#985,#925,#993,.T.);
#993 = CIRCLE('',#994,0.37135);
#994 = AXIS2_PLACEMENT_3D('',#995,#996,#997);
#995 = CARTESIAN_POINT('',(3.30322,1.77865,1.18745));
#996 = DIRECTION('',(1.,0.,0.));
#997 = DIRECTION('',(0.,-1.,0.));
#998 = PLANE('',#999);
#999 = AXIS2_PLACEMENT_3D('',#1000,#1001,#1002);
#1000 = CARTESIAN_POINT('',(3.30322,2.15,1.38745));
#1001 = DIRECTION('',(1.,0.,0.));
#1002 = DIRECTION('',(0.,-2.22044604925E-16,-1.));
#1003 = ADVANCED_FACE('',(#1004),#1015,.F.);
#1004 = FACE_BOUND('',#1005,.T.);
#1005 = EDGE_LOOP('',(#1006,#1007,#1008,#1009));
#1006 = ORIENTED_EDGE('',*,*,#847,.F.);
#1007 = ORIENTED_EDGE('',*,*,#684,.T.);
#1008 = ORIENTED_EDGE('',*,*,#975,.F.);
#1009 = ORIENTED_EDGE('',*,*,#1010,.F.);
#1010 = EDGE_CURVE('',#840,#976,#1011,.T.);
#1011 = LINE('',#1012,#1013);
#1012 = CARTESIAN_POINT('',(3.48,1.64364,0.8161));
#1013 = VECTOR('',#1014,1.);
#1014 = DIRECTION('',(-1.,0.,0.));
#1015 = CYLINDRICAL_SURFACE('',#1016,0.14364);
#1016 = AXIS2_PLACEMENT_3D('',#1017,#1018,#1019);
#1017 = CARTESIAN_POINT('',(3.48,1.64364,0.67246));
#1018 = DIRECTION('',(1.,0.,0.));
#1019 = DIRECTION('',(-0.,-1.,-0.));
#1020 = ADVANCED_FACE('',(#1021),#1032,.F.);
#1021 = FACE_BOUND('',#1022,.F.);
#1022 = EDGE_LOOP('',(#1023,#1024,#1025,#1026));
#1023 = ORIENTED_EDGE('',*,*,#862,.F.);
#1024 = ORIENTED_EDGE('',*,*,#764,.T.);
#1025 = ORIENTED_EDGE('',*,*,#965,.T.);
#1026 = ORIENTED_EDGE('',*,*,#1027,.F.);
#1027 = EDGE_CURVE('',#863,#958,#1028,.T.);
#1028 = LINE('',#1029,#1030);
#1029 = CARTESIAN_POINT('',(3.48,-1.64364,0.8161));
#1030 = VECTOR('',#1031,1.);
#1031 = DIRECTION('',(-1.,-0.,-0.));
#1032 = CYLINDRICAL_SURFACE('',#1033,0.14364);
#1033 = AXIS2_PLACEMENT_3D('',#1034,#1035,#1036);
#1034 = CARTESIAN_POINT('',(3.48,-1.64364,0.67246));
#1035 = DIRECTION('',(1.,0.,0.));
#1036 = DIRECTION('',(0.,1.,0.));
#1037 = ADVANCED_FACE('',(#1038),#1054,.T.);
#1038 = FACE_BOUND('',#1039,.T.);
#1039 = EDGE_LOOP('',(#1040,#1046,#1047,#1053));
#1040 = ORIENTED_EDGE('',*,*,#1041,.T.);
#1041 = EDGE_CURVE('',#821,#925,#1042,.T.);
#1042 = LINE('',#1043,#1044);
#1043 = CARTESIAN_POINT('',(3.48,2.15,1.18745));
#1044 = VECTOR('',#1045,1.);
#1045 = DIRECTION('',(-1.,0.,0.));
#1046 = ORIENTED_EDGE('',*,*,#922,.F.);
#1047 = ORIENTED_EDGE('',*,*,#1048,.F.);
#1048 = EDGE_CURVE('',#823,#923,#1049,.T.);
#1049 = LINE('',#1050,#1051);
#1050 = CARTESIAN_POINT('',(3.48,2.15,1.38745));
#1051 = VECTOR('',#1052,1.);
#1052 = DIRECTION('',(-1.,0.,0.));
#1053 = ORIENTED_EDGE('',*,*,#820,.F.);
#1054 = PLANE('',#1055);
#1055 = AXIS2_PLACEMENT_3D('',#1056,#1057,#1058);
#1056 = CARTESIAN_POINT('',(2.794438824967,2.15,0.302815379349));
#1057 = DIRECTION('',(0.,1.,0.));
#1058 = DIRECTION('',(0.,0.,1.));
#1059 = ADVANCED_FACE('',(#1060),#1071,.F.);
#1060 = FACE_BOUND('',#1061,.F.);
#1061 = EDGE_LOOP('',(#1062,#1063,#1069,#1070));
#1062 = ORIENTED_EDGE('',*,*,#896,.T.);
#1063 = ORIENTED_EDGE('',*,*,#1064,.T.);
#1064 = EDGE_CURVE('',#889,#933,#1065,.T.);
#1065 = LINE('',#1066,#1067);
#1066 = CARTESIAN_POINT('',(3.48,-2.15,1.38745));
#1067 = VECTOR('',#1068,1.);
#1068 = DIRECTION('',(-1.,0.,0.));
#1069 = ORIENTED_EDGE('',*,*,#932,.F.);
#1070 = ORIENTED_EDGE('',*,*,#1048,.F.);
#1071 = PLANE('',#1072);
#1072 = AXIS2_PLACEMENT_3D('',#1073,#1074,#1075);
#1073 = CARTESIAN_POINT('',(3.48,2.15,1.38745));
#1074 = DIRECTION('',(-0.,-2.22044604925E-16,-1.));
#1075 = DIRECTION('',(-1.,0.,0.));
#1076 = ADVANCED_FACE('',(#1077),#1088,.F.);
#1077 = FACE_BOUND('',#1078,.F.);
#1078 = EDGE_LOOP('',(#1079,#1085,#1086,#1087));
#1079 = ORIENTED_EDGE('',*,*,#1080,.T.);
#1080 = EDGE_CURVE('',#880,#941,#1081,.T.);
#1081 = LINE('',#1082,#1083);
#1082 = CARTESIAN_POINT('',(3.48,-2.15,1.18745));
#1083 = VECTOR('',#1084,1.);
#1084 = DIRECTION('',(-1.,-0.,-0.));
#1085 = ORIENTED_EDGE('',*,*,#940,.F.);
#1086 = ORIENTED_EDGE('',*,*,#1064,.F.);
#1087 = ORIENTED_EDGE('',*,*,#888,.F.);
#1088 = PLANE('',#1089);
#1089 = AXIS2_PLACEMENT_3D('',#1090,#1091,#1092);
#1090 = CARTESIAN_POINT('',(2.794438824967,-2.15,0.302815379349));
#1091 = DIRECTION('',(0.,1.,0.));
#1092 = DIRECTION('',(0.,0.,1.));
#1093 = ADVANCED_FACE('',(#1094),#1105,.T.);
#1094 = FACE_BOUND('',#1095,.T.);
#1095 = EDGE_LOOP('',(#1096,#1097,#1098,#1099));
#1096 = ORIENTED_EDGE('',*,*,#879,.F.);
#1097 = ORIENTED_EDGE('',*,*,#1080,.T.);
#1098 = ORIENTED_EDGE('',*,*,#948,.T.);
#1099 = ORIENTED_EDGE('',*,*,#1100,.F.);
#1100 = EDGE_CURVE('',#872,#949,#1101,.T.);
#1101 = LINE('',#1102,#1103);
#1102 = CARTESIAN_POINT('',(3.48,-1.77865,0.8161));
#1103 = VECTOR('',#1104,1.);
#1104 = DIRECTION('',(-1.,-0.,-0.));
#1105 = CYLINDRICAL_SURFACE('',#1106,0.37135);
#1106 = AXIS2_PLACEMENT_3D('',#1107,#1108,#1109);
#1107 = CARTESIAN_POINT('',(3.48,-1.77865,1.18745));
#1108 = DIRECTION('',(1.,0.,0.));
#1109 = DIRECTION('',(0.,1.,0.));
#1110 = ADVANCED_FACE('',(#1111),#1117,.T.);
#1111 = FACE_BOUND('',#1112,.T.);
#1112 = EDGE_LOOP('',(#1113,#1114,#1115,#1116));
#1113 = ORIENTED_EDGE('',*,*,#871,.F.);
#1114 = ORIENTED_EDGE('',*,*,#1100,.T.);
#1115 = ORIENTED_EDGE('',*,*,#957,.T.);
#1116 = ORIENTED_EDGE('',*,*,#1027,.F.);
#1117 = PLANE('',#1118);
#1118 = AXIS2_PLACEMENT_3D('',#1119,#1120,#1121);
#1119 = CARTESIAN_POINT('',(3.48,-1.77865,0.8161));
#1120 = DIRECTION('',(0.,0.,-1.));
#1121 = DIRECTION('',(0.,1.,0.));
#1122 = ADVANCED_FACE('',(#1123),#1134,.T.);
#1123 = FACE_BOUND('',#1124,.F.);
#1124 = EDGE_LOOP('',(#1125,#1126,#1132,#1133));
#1125 = ORIENTED_EDGE('',*,*,#839,.F.);
#1126 = ORIENTED_EDGE('',*,*,#1127,.T.);
#1127 = EDGE_CURVE('',#831,#985,#1128,.T.);
#1128 = LINE('',#1129,#1130);
#1129 = CARTESIAN_POINT('',(3.48,1.77865,0.8161));
#1130 = VECTOR('',#1131,1.);
#1131 = DIRECTION('',(-1.,0.,0.));
#1132 = ORIENTED_EDGE('',*,*,#984,.T.);
#1133 = ORIENTED_EDGE('',*,*,#1010,.F.);
#1134 = PLANE('',#1135);
#1135 = AXIS2_PLACEMENT_3D('',#1136,#1137,#1138);
#1136 = CARTESIAN_POINT('',(3.48,1.77865,0.8161));
#1137 = DIRECTION('',(-0.,-0.,-1.));
#1138 = DIRECTION('',(0.,1.,0.));
#1139 = ADVANCED_FACE('',(#1140),#1146,.T.);
#1140 = FACE_BOUND('',#1141,.F.);
#1141 = EDGE_LOOP('',(#1142,#1143,#1144,#1145));
#1142 = ORIENTED_EDGE('',*,*,#830,.F.);
#1143 = ORIENTED_EDGE('',*,*,#1041,.T.);
#1144 = ORIENTED_EDGE('',*,*,#992,.F.);
#1145 = ORIENTED_EDGE('',*,*,#1127,.F.);
#1146 = CYLINDRICAL_SURFACE('',#1147,0.37135);
#1147 = AXIS2_PLACEMENT_3D('',#1148,#1149,#1150);
#1148 = CARTESIAN_POINT('',(3.48,1.77865,1.18745));
#1149 = DIRECTION('',(1.,0.,0.));
#1150 = DIRECTION('',(-0.,-1.,-0.));
#1151 = ( GEOMETRIC_REPRESENTATION_CONTEXT(3) 
GLOBAL_UNCERTAINTY_ASSIGNED_CONTEXT((#1155)) 
GLOBAL_UNIT_ASSIGNED_CONTEXT((#1152,#1153,#1154)) REPRESENTATION_CONTEXT
('Context #1','3D Context with UNIT and UNCERTAINTY') );
#1152 = ( LENGTH_UNIT() NAMED_UNIT(*) SI_UNIT(.MILLI.,.METRE.) );
#1153 = ( NAMED_UNIT(*) PLANE_ANGLE_UNIT() SI_UNIT($,.RADIAN.) );
#1154 = ( NAMED_UNIT(*) SI_UNIT($,.STERADIAN.) SOLID_ANGLE_UNIT() );
#1155 = UNCERTAINTY_MEASURE_WITH_UNIT(LENGTH_MEASURE(2.E-06),#1152,
  'distance_accuracy_value','confusion accuracy');
#1156 = PRODUCT_RELATED_PRODUCT_CATEGORY('part',$,(#624));
#1157 = SHAPE_DEFINITION_REPRESENTATION(#1158,#1164);
#1158 = PRODUCT_DEFINITION_SHAPE('','',#1159);
#1159 = PRODUCT_DEFINITION('design','',#1160,#1163);
#1160 = PRODUCT_DEFINITION_FORMATION('','',#1161);
#1161 = PRODUCT('pad_2','pad_2','',(#1162));
#1162 = PRODUCT_CONTEXT('',#2,'mechanical');
#1163 = PRODUCT_DEFINITION_CONTEXT('part definition',#2,'design');
#1164 = ADVANCED_BREP_SHAPE_REPRESENTATION('',(#11,#1165),#1688);
#1165 = MANIFOLD_SOLID_BREP('',#1166);
#1166 = CLOSED_SHELL('',(#1167,#1207,#1263,#1287,#1336,#1353,#1443,#1455
    ,#1540,#1557,#1574,#1596,#1613,#1630,#1647,#1659,#1676));
#1167 = ADVANCED_FACE('',(#1168),#1202,.F.);
#1168 = FACE_BOUND('',#1169,.F.);
#1169 = EDGE_LOOP('',(#1170,#1180,#1188,#1196));
#1170 = ORIENTED_EDGE('',*,*,#1171,.F.);
#1171 = EDGE_CURVE('',#1172,#1174,#1176,.T.);
#1172 = VERTEX_POINT('',#1173);
#1173 = CARTESIAN_POINT('',(-1.48,-1.5,0.15));
#1174 = VERTEX_POINT('',#1175);
#1175 = CARTESIAN_POINT('',(-1.48,-1.5,-0.15));
#1176 = LINE('',#1177,#1178);
#1177 = CARTESIAN_POINT('',(-1.48,-1.5,0.41123));
#1178 = VECTOR('',#1179,1.);
#1179 = DIRECTION('',(-0.,0.,-1.));
#1180 = ORIENTED_EDGE('',*,*,#1181,.T.);
#1181 = EDGE_CURVE('',#1172,#1182,#1184,.T.);
#1182 = VERTEX_POINT('',#1183);
#1183 = CARTESIAN_POINT('',(-1.48,1.5,0.15));
#1184 = LINE('',#1185,#1186);
#1185 = CARTESIAN_POINT('',(-1.48,-2.15,0.15));
#1186 = VECTOR('',#1187,1.);
#1187 = DIRECTION('',(1.224646799147E-16,1.,2.22044604925E-16));
#1188 = ORIENTED_EDGE('',*,*,#1189,.T.);
#1189 = EDGE_CURVE('',#1182,#1190,#1192,.T.);
#1190 = VERTEX_POINT('',#1191);
#1191 = CARTESIAN_POINT('',(-1.48,1.5,-0.15));
#1192 = LINE('',#1193,#1194);
#1193 = CARTESIAN_POINT('',(-1.48,1.5,0.41123));
#1194 = VECTOR('',#1195,1.);
#1195 = DIRECTION('',(-0.,0.,-1.));
#1196 = ORIENTED_EDGE('',*,*,#1197,.F.);
#1197 = EDGE_CURVE('',#1174,#1190,#1198,.T.);
#1198 = LINE('',#1199,#1200);
#1199 = CARTESIAN_POINT('',(-1.48,-2.15,-0.15));
#1200 = VECTOR('',#1201,1.);
#1201 = DIRECTION('',(1.224646799147E-16,1.,2.22044604925E-16));
#1202 = PLANE('',#1203);
#1203 = AXIS2_PLACEMENT_3D('',#1204,#1205,#1206);
#1204 = CARTESIAN_POINT('',(-1.48,-2.15,0.15));
#1205 = DIRECTION('',(-1.,1.224646799147E-16,0.));
#1206 = DIRECTION('',(2.719262146894E-32,2.22044604925E-16,-1.));
#1207 = ADVANCED_FACE('',(#1208),#1258,.T.);
#1208 = FACE_BOUND('',#1209,.F.);
#1209 = EDGE_LOOP('',(#1210,#1220,#1228,#1236,#1242,#1243,#1251));
#1210 = ORIENTED_EDGE('',*,*,#1211,.F.);
#1211 = EDGE_CURVE('',#1212,#1214,#1216,.T.);
#1212 = VERTEX_POINT('',#1213);
#1213 = CARTESIAN_POINT('',(-3.48,-1.5,0.67246));
#1214 = VERTEX_POINT('',#1215);
#1215 = CARTESIAN_POINT('',(-3.48,-1.5,-5.E-02));
#1216 = LINE('',#1217,#1218);
#1217 = CARTESIAN_POINT('',(-3.48,-1.5,0.67246));
#1218 = VECTOR('',#1219,1.);
#1219 = DIRECTION('',(0.,0.,-1.));
#1220 = ORIENTED_EDGE('',*,*,#1221,.T.);
#1221 = EDGE_CURVE('',#1212,#1222,#1224,.T.);
#1222 = VERTEX_POINT('',#1223);
#1223 = CARTESIAN_POINT('',(-3.30322,-1.5,0.67246));
#1224 = LINE('',#1225,#1226);
#1225 = CARTESIAN_POINT('',(-3.48,-1.5,0.67246));
#1226 = VECTOR('',#1227,1.);
#1227 = DIRECTION('',(1.,-1.224646799147E-16,0.));
#1228 = ORIENTED_EDGE('',*,*,#1229,.T.);
#1229 = EDGE_CURVE('',#1222,#1230,#1232,.T.);
#1230 = VERTEX_POINT('',#1231);
#1231 = CARTESIAN_POINT('',(-3.30322,-1.5,0.15));
#1232 = LINE('',#1233,#1234);
#1233 = CARTESIAN_POINT('',(-3.30322,-1.5,1.029955));
#1234 = VECTOR('',#1235,1.);
#1235 = DIRECTION('',(-0.,0.,-1.));
#1236 = ORIENTED_EDGE('',*,*,#1237,.T.);
#1237 = EDGE_CURVE('',#1230,#1172,#1238,.T.);
#1238 = LINE('',#1239,#1240);
#1239 = CARTESIAN_POINT('',(-3.39161,-1.5,0.15));
#1240 = VECTOR('',#1241,1.);
#1241 = DIRECTION('',(1.,-1.224646799147E-16,0.));
#1242 = ORIENTED_EDGE('',*,*,#1171,.T.);
#1243 = ORIENTED_EDGE('',*,*,#1244,.T.);
#1244 = EDGE_CURVE('',#1174,#1245,#1247,.T.);
#1245 = VERTEX_POINT('',#1246);
#1246 = CARTESIAN_POINT('',(-3.38,-1.5,-0.15));
#1247 = LINE('',#1248,#1249);
#1248 = CARTESIAN_POINT('',(-2.48,-1.5,-0.15));
#1249 = VECTOR('',#1250,1.);
#1250 = DIRECTION('',(-1.,1.224646799147E-16,0.));
#1251 = ORIENTED_EDGE('',*,*,#1252,.F.);
#1252 = EDGE_CURVE('',#1214,#1245,#1253,.T.);
#1253 = CIRCLE('',#1254,0.1);
#1254 = AXIS2_PLACEMENT_3D('',#1255,#1256,#1257);
#1255 = CARTESIAN_POINT('',(-3.38,-1.5,-5.E-02));
#1256 = DIRECTION('',(-1.224646799147E-16,-1.,-2.22044604925E-16));
#1257 = DIRECTION('',(-1.,1.224646799147E-16,0.));
#1258 = PLANE('',#1259);
#1259 = AXIS2_PLACEMENT_3D('',#1260,#1261,#1262);
#1260 = CARTESIAN_POINT('',(-3.48,-1.5,0.67246));
#1261 = DIRECTION('',(-1.224646799147E-16,-1.,0.));
#1262 = DIRECTION('',(0.,0.,1.));
#1263 = ADVANCED_FACE('',(#1264),#1282,.F.);
#1264 = FACE_BOUND('',#1265,.F.);
#1265 = EDGE_LOOP('',(#1266,#1267,#1268,#1276));
#1266 = ORIENTED_EDGE('',*,*,#1244,.F.);
#1267 = ORIENTED_EDGE('',*,*,#1197,.T.);
#1268 = ORIENTED_EDGE('',*,*,#1269,.T.);
#1269 = EDGE_CURVE('',#1190,#1270,#1272,.T.);
#1270 = VERTEX_POINT('',#1271);
#1271 = CARTESIAN_POINT('',(-3.38,1.5,-0.15));
#1272 = LINE('',#1273,#1274);
#1273 = CARTESIAN_POINT('',(-2.48,1.5,-0.15));
#1274 = VECTOR('',#1275,1.);
#1275 = DIRECTION('',(-1.,1.224646799147E-16,0.));
#1276 = ORIENTED_EDGE('',*,*,#1277,.F.);
#1277 = EDGE_CURVE('',#1245,#1270,#1278,.T.);
#1278 = LINE('',#1279,#1280);
#1279 = CARTESIAN_POINT('',(-3.38,-2.15,-0.15));
#1280 = VECTOR('',#1281,1.);
#1281 = DIRECTION('',(1.224646799147E-16,1.,2.22044604925E-16));
#1282 = PLANE('',#1283);
#1283 = AXIS2_PLACEMENT_3D('',#1284,#1285,#1286);
#1284 = CARTESIAN_POINT('',(-1.48,-2.15,-0.15));
#1285 = DIRECTION('',(-2.719262146894E-32,-2.22044604925E-16,1.));
#1286 = DIRECTION('',(-1.,1.224646799147E-16,0.));
#1287 = ADVANCED_FACE('',(#1288),#1331,.T.);
#1288 = FACE_BOUND('',#1289,.T.);
#1289 = EDGE_LOOP('',(#1290,#1300,#1308,#1316,#1322,#1323,#1324));
#1290 = ORIENTED_EDGE('',*,*,#1291,.F.);
#1291 = EDGE_CURVE('',#1292,#1294,#1296,.T.);
#1292 = VERTEX_POINT('',#1293);
#1293 = CARTESIAN_POINT('',(-3.48,1.5,0.67246));
#1294 = VERTEX_POINT('',#1295);
#1295 = CARTESIAN_POINT('',(-3.48,1.5,-5.E-02));
#1296 = LINE('',#1297,#1298);
#1297 = CARTESIAN_POINT('',(-3.48,1.5,0.67246));
#1298 = VECTOR('',#1299,1.);
#1299 = DIRECTION('',(-0.,0.,-1.));
#1300 = ORIENTED_EDGE('',*,*,#1301,.T.);
#1301 = EDGE_CURVE('',#1292,#1302,#1304,.T.);
#1302 = VERTEX_POINT('',#1303);
#1303 = CARTESIAN_POINT('',(-3.30322,1.5,0.67246));
#1304 = LINE('',#1305,#1306);
#1305 = CARTESIAN_POINT('',(-3.48,1.5,0.67246));
#1306 = VECTOR('',#1307,1.);
#1307 = DIRECTION('',(1.,-1.224646799147E-16,-0.));
#1308 = ORIENTED_EDGE('',*,*,#1309,.T.);
#1309 = EDGE_CURVE('',#1302,#1310,#1312,.T.);
#1310 = VERTEX_POINT('',#1311);
#1311 = CARTESIAN_POINT('',(-3.30322,1.5,0.15));
#1312 = LINE('',#1313,#1314);
#1313 = CARTESIAN_POINT('',(-3.30322,1.5,1.029955));
#1314 = VECTOR('',#1315,1.);
#1315 = DIRECTION('',(-0.,0.,-1.));
#1316 = ORIENTED_EDGE('',*,*,#1317,.T.);
#1317 = EDGE_CURVE('',#1310,#1182,#1318,.T.);
#1318 = LINE('',#1319,#1320);
#1319 = CARTESIAN_POINT('',(-3.39161,1.5,0.15));
#1320 = VECTOR('',#1321,1.);
#1321 = DIRECTION('',(1.,-1.224646799147E-16,0.));
#1322 = ORIENTED_EDGE('',*,*,#1189,.T.);
#1323 = ORIENTED_EDGE('',*,*,#1269,.T.);
#1324 = ORIENTED_EDGE('',*,*,#1325,.F.);
#1325 = EDGE_CURVE('',#1294,#1270,#1326,.T.);
#1326 = CIRCLE('',#1327,0.1);
#1327 = AXIS2_PLACEMENT_3D('',#1328,#1329,#1330);
#1328 = CARTESIAN_POINT('',(-3.38,1.5,-5.E-02));
#1329 = DIRECTION('',(-1.224646799147E-16,-1.,-2.22044604925E-16));
#1330 = DIRECTION('',(-1.,1.224646799147E-16,0.));
#1331 = PLANE('',#1332);
#1332 = AXIS2_PLACEMENT_3D('',#1333,#1334,#1335);
#1333 = CARTESIAN_POINT('',(-3.48,1.5,0.67246));
#1334 = DIRECTION('',(1.224646799147E-16,1.,0.));
#1335 = DIRECTION('',(-0.,0.,-1.));
#1336 = ADVANCED_FACE('',(#1337),#1348,.F.);
#1337 = FACE_BOUND('',#1338,.F.);
#1338 = EDGE_LOOP('',(#1339,#1340,#1346,#1347));
#1339 = ORIENTED_EDGE('',*,*,#1237,.F.);
#1340 = ORIENTED_EDGE('',*,*,#1341,.T.);
#1341 = EDGE_CURVE('',#1230,#1310,#1342,.T.);
#1342 = LINE('',#1343,#1344);
#1343 = CARTESIAN_POINT('',(-3.30322,-2.15,0.15));
#1344 = VECTOR('',#1345,1.);
#1345 = DIRECTION('',(1.224646799147E-16,1.,2.22044604925E-16));
#1346 = ORIENTED_EDGE('',*,*,#1317,.T.);
#1347 = ORIENTED_EDGE('',*,*,#1181,.F.);
#1348 = PLANE('',#1349);
#1349 = AXIS2_PLACEMENT_3D('',#1350,#1351,#1352);
#1350 = CARTESIAN_POINT('',(-3.30322,-2.15,0.15));
#1351 = DIRECTION('',(2.719262146894E-32,2.22044604925E-16,-1.));
#1352 = DIRECTION('',(1.,-1.224646799147E-16,0.));
#1353 = ADVANCED_FACE('',(#1354),#1438,.F.);
#1354 = FACE_BOUND('',#1355,.F.);
#1355 = EDGE_LOOP('',(#1356,#1366,#1375,#1383,#1390,#1391,#1397,#1398,
    #1407,#1415,#1424,#1432));
#1356 = ORIENTED_EDGE('',*,*,#1357,.F.);
#1357 = EDGE_CURVE('',#1358,#1360,#1362,.T.);
#1358 = VERTEX_POINT('',#1359);
#1359 = CARTESIAN_POINT('',(-3.48,-2.15,1.18745));
#1360 = VERTEX_POINT('',#1361);
#1361 = CARTESIAN_POINT('',(-3.48,-2.15,1.38745));
#1362 = LINE('',#1363,#1364);
#1363 = CARTESIAN_POINT('',(-3.48,-2.15,-5.E-02));
#1364 = VECTOR('',#1365,1.);
#1365 = DIRECTION('',(-2.719262146894E-32,-2.22044604925E-16,1.));
#1366 = ORIENTED_EDGE('',*,*,#1367,.T.);
#1367 = EDGE_CURVE('',#1358,#1368,#1370,.T.);
#1368 = VERTEX_POINT('',#1369);
#1369 = CARTESIAN_POINT('',(-3.48,-1.77865,0.8161));
#1370 = CIRCLE('',#1371,0.37135);
#1371 = AXIS2_PLACEMENT_3D('',#1372,#1373,#1374);
#1372 = CARTESIAN_POINT('',(-3.48,-1.77865,1.18745));
#1373 = DIRECTION('',(1.,-1.224646799147E-16,0.));
#1374 = DIRECTION('',(1.224646799147E-16,1.,-0.));
#1375 = ORIENTED_EDGE('',*,*,#1376,.T.);
#1376 = EDGE_CURVE('',#1368,#1377,#1379,.T.);
#1377 = VERTEX_POINT('',#1378);
#1378 = CARTESIAN_POINT('',(-3.48,-1.64364,0.8161));
#1379 = LINE('',#1380,#1381);
#1380 = CARTESIAN_POINT('',(-3.48,-1.77865,0.8161));
#1381 = VECTOR('',#1382,1.);
#1382 = DIRECTION('',(1.224646799147E-16,1.,-0.));
#1383 = ORIENTED_EDGE('',*,*,#1384,.F.);
#1384 = EDGE_CURVE('',#1212,#1377,#1385,.T.);
#1385 = CIRCLE('',#1386,0.14364);
#1386 = AXIS2_PLACEMENT_3D('',#1387,#1388,#1389);
#1387 = CARTESIAN_POINT('',(-3.48,-1.64364,0.67246));
#1388 = DIRECTION('',(1.,-1.224646799147E-16,0.));
#1389 = DIRECTION('',(1.224646799147E-16,1.,-0.));
#1390 = ORIENTED_EDGE('',*,*,#1211,.T.);
#1391 = ORIENTED_EDGE('',*,*,#1392,.T.);
#1392 = EDGE_CURVE('',#1214,#1294,#1393,.T.);
#1393 = LINE('',#1394,#1395);
#1394 = CARTESIAN_POINT('',(-3.48,-2.15,-5.E-02));
#1395 = VECTOR('',#1396,1.);
#1396 = DIRECTION('',(1.224646799147E-16,1.,2.22044604925E-16));
#1397 = ORIENTED_EDGE('',*,*,#1291,.F.);
#1398 = ORIENTED_EDGE('',*,*,#1399,.T.);
#1399 = EDGE_CURVE('',#1292,#1400,#1402,.T.);
#1400 = VERTEX_POINT('',#1401);
#1401 = CARTESIAN_POINT('',(-3.48,1.64364,0.8161));
#1402 = CIRCLE('',#1403,0.14364);
#1403 = AXIS2_PLACEMENT_3D('',#1404,#1405,#1406);
#1404 = CARTESIAN_POINT('',(-3.48,1.64364,0.67246));
#1405 = DIRECTION('',(-1.,1.224646799147E-16,0.));
#1406 = DIRECTION('',(-1.224646799147E-16,-1.,0.));
#1407 = ORIENTED_EDGE('',*,*,#1408,.F.);
#1408 = EDGE_CURVE('',#1409,#1400,#1411,.T.);
#1409 = VERTEX_POINT('',#1410);
#1410 = CARTESIAN_POINT('',(-3.48,1.77865,0.8161));
#1411 = LINE('',#1412,#1413);
#1412 = CARTESIAN_POINT('',(-3.48,1.77865,0.8161));
#1413 = VECTOR('',#1414,1.);
#1414 = DIRECTION('',(-1.224646799147E-16,-1.,0.));
#1415 = ORIENTED_EDGE('',*,*,#1416,.F.);
#1416 = EDGE_CURVE('',#1417,#1409,#1419,.T.);
#1417 = VERTEX_POINT('',#1418);
#1418 = CARTESIAN_POINT('',(-3.48,2.15,1.18745));
#1419 = CIRCLE('',#1420,0.37135);
#1420 = AXIS2_PLACEMENT_3D('',#1421,#1422,#1423);
#1421 = CARTESIAN_POINT('',(-3.48,1.77865,1.18745));
#1422 = DIRECTION('',(-1.,1.224646799147E-16,0.));
#1423 = DIRECTION('',(-1.224646799147E-16,-1.,0.));
#1424 = ORIENTED_EDGE('',*,*,#1425,.T.);
#1425 = EDGE_CURVE('',#1417,#1426,#1428,.T.);
#1426 = VERTEX_POINT('',#1427);
#1427 = CARTESIAN_POINT('',(-3.48,2.15,1.38745));
#1428 = LINE('',#1429,#1430);
#1429 = CARTESIAN_POINT('',(-3.48,2.15,-5.E-02));
#1430 = VECTOR('',#1431,1.);
#1431 = DIRECTION('',(-2.719262146894E-32,-2.22044604925E-16,1.));
#1432 = ORIENTED_EDGE('',*,*,#1433,.F.);
#1433 = EDGE_CURVE('',#1360,#1426,#1434,.T.);
#1434 = LINE('',#1435,#1436);
#1435 = CARTESIAN_POINT('',(-3.48,-2.15,1.38745));
#1436 = VECTOR('',#1437,1.);
#1437 = DIRECTION('',(1.224646799147E-16,1.,2.22044604925E-16));
#1438 = PLANE('',#1439);
#1439 = AXIS2_PLACEMENT_3D('',#1440,#1441,#1442);
#1440 = CARTESIAN_POINT('',(-3.48,-2.15,-5.E-02));
#1441 = DIRECTION('',(1.,-1.224646799147E-16,0.));
#1442 = DIRECTION('',(-2.719262146894E-32,-2.22044604925E-16,1.));
#1443 = ADVANCED_FACE('',(#1444),#1450,.T.);
#1444 = FACE_BOUND('',#1445,.F.);
#1445 = EDGE_LOOP('',(#1446,#1447,#1448,#1449));
#1446 = ORIENTED_EDGE('',*,*,#1252,.T.);
#1447 = ORIENTED_EDGE('',*,*,#1277,.T.);
#1448 = ORIENTED_EDGE('',*,*,#1325,.F.);
#1449 = ORIENTED_EDGE('',*,*,#1392,.F.);
#1450 = CYLINDRICAL_SURFACE('',#1451,0.1);
#1451 = AXIS2_PLACEMENT_3D('',#1452,#1453,#1454);
#1452 = CARTESIAN_POINT('',(-3.38,-2.15,-5.E-02));
#1453 = DIRECTION('',(-1.224646799147E-16,-1.,-2.22044604925E-16));
#1454 = DIRECTION('',(-1.,1.224646799147E-16,0.));
#1455 = ADVANCED_FACE('',(#1456),#1535,.F.);
#1456 = FACE_BOUND('',#1457,.F.);
#1457 = EDGE_LOOP('',(#1458,#1468,#1476,#1484,#1493,#1501,#1508,#1509,
    #1510,#1511,#1520,#1528));
#1458 = ORIENTED_EDGE('',*,*,#1459,.F.);
#1459 = EDGE_CURVE('',#1460,#1462,#1464,.T.);
#1460 = VERTEX_POINT('',#1461);
#1461 = CARTESIAN_POINT('',(-3.30322,-2.15,1.38745));
#1462 = VERTEX_POINT('',#1463);
#1463 = CARTESIAN_POINT('',(-3.30322,-2.15,1.18745));
#1464 = LINE('',#1465,#1466);
#1465 = CARTESIAN_POINT('',(-3.30322,-2.15,1.38745));
#1466 = VECTOR('',#1467,1.);
#1467 = DIRECTION('',(2.719262146894E-32,2.22044604925E-16,-1.));
#1468 = ORIENTED_EDGE('',*,*,#1469,.T.);
#1469 = EDGE_CURVE('',#1460,#1470,#1472,.T.);
#1470 = VERTEX_POINT('',#1471);
#1471 = CARTESIAN_POINT('',(-3.30322,2.15,1.38745));
#1472 = LINE('',#1473,#1474);
#1473 = CARTESIAN_POINT('',(-3.30322,-2.15,1.38745));
#1474 = VECTOR('',#1475,1.);
#1475 = DIRECTION('',(1.224646799147E-16,1.,2.22044604925E-16));
#1476 = ORIENTED_EDGE('',*,*,#1477,.T.);
#1477 = EDGE_CURVE('',#1470,#1478,#1480,.T.);
#1478 = VERTEX_POINT('',#1479);
#1479 = CARTESIAN_POINT('',(-3.30322,2.15,1.18745));
#1480 = LINE('',#1481,#1482);
#1481 = CARTESIAN_POINT('',(-3.30322,2.15,1.38745));
#1482 = VECTOR('',#1483,1.);
#1483 = DIRECTION('',(2.719262146894E-32,2.22044604925E-16,-1.));
#1484 = ORIENTED_EDGE('',*,*,#1485,.T.);
#1485 = EDGE_CURVE('',#1478,#1486,#1488,.T.);
#1486 = VERTEX_POINT('',#1487);
#1487 = CARTESIAN_POINT('',(-3.30322,1.77865,0.8161));
#1488 = CIRCLE('',#1489,0.37135);
#1489 = AXIS2_PLACEMENT_3D('',#1490,#1491,#1492);
#1490 = CARTESIAN_POINT('',(-3.30322,1.77865,1.18745));
#1491 = DIRECTION('',(-1.,1.224646799147E-16,0.));
#1492 = DIRECTION('',(-1.224646799147E-16,-1.,0.));
#1493 = ORIENTED_EDGE('',*,*,#1494,.T.);
#1494 = EDGE_CURVE('',#1486,#1495,#1497,.T.);
#1495 = VERTEX_POINT('',#1496);
#1496 = CARTESIAN_POINT('',(-3.30322,1.64364,0.8161));
#1497 = LINE('',#1498,#1499);
#1498 = CARTESIAN_POINT('',(-3.30322,-0.185675,0.8161));
#1499 = VECTOR('',#1500,1.);
#1500 = DIRECTION('',(-1.224646799147E-16,-1.,0.));
#1501 = ORIENTED_EDGE('',*,*,#1502,.F.);
#1502 = EDGE_CURVE('',#1302,#1495,#1503,.T.);
#1503 = CIRCLE('',#1504,0.14364);
#1504 = AXIS2_PLACEMENT_3D('',#1505,#1506,#1507);
#1505 = CARTESIAN_POINT('',(-3.30322,1.64364,0.67246));
#1506 = DIRECTION('',(-1.,1.224646799147E-16,0.));
#1507 = DIRECTION('',(-1.224646799147E-16,-1.,0.));
#1508 = ORIENTED_EDGE('',*,*,#1309,.T.);
#1509 = ORIENTED_EDGE('',*,*,#1341,.F.);
#1510 = ORIENTED_EDGE('',*,*,#1229,.F.);
#1511 = ORIENTED_EDGE('',*,*,#1512,.F.);
#1512 = EDGE_CURVE('',#1513,#1222,#1515,.T.);
#1513 = VERTEX_POINT('',#1514);
#1514 = CARTESIAN_POINT('',(-3.30322,-1.64364,0.8161));
#1515 = CIRCLE('',#1516,0.14364);
#1516 = AXIS2_PLACEMENT_3D('',#1517,#1518,#1519);
#1517 = CARTESIAN_POINT('',(-3.30322,-1.64364,0.67246));
#1518 = DIRECTION('',(-1.,1.224646799147E-16,0.));
#1519 = DIRECTION('',(1.224646799147E-16,1.,0.));
#1520 = ORIENTED_EDGE('',*,*,#1521,.F.);
#1521 = EDGE_CURVE('',#1522,#1513,#1524,.T.);
#1522 = VERTEX_POINT('',#1523);
#1523 = CARTESIAN_POINT('',(-3.30322,-1.77865,0.8161));
#1524 = LINE('',#1525,#1526);
#1525 = CARTESIAN_POINT('',(-3.30322,-1.964325,0.8161));
#1526 = VECTOR('',#1527,1.);
#1527 = DIRECTION('',(1.224646799147E-16,1.,0.));
#1528 = ORIENTED_EDGE('',*,*,#1529,.T.);
#1529 = EDGE_CURVE('',#1522,#1462,#1530,.T.);
#1530 = CIRCLE('',#1531,0.37135);
#1531 = AXIS2_PLACEMENT_3D('',#1532,#1533,#1534);
#1532 = CARTESIAN_POINT('',(-3.30322,-1.77865,1.18745));
#1533 = DIRECTION('',(-1.,1.224646799147E-16,0.));
#1534 = DIRECTION('',(1.224646799147E-16,1.,0.));
#1535 = PLANE('',#1536);
#1536 = AXIS2_PLACEMENT_3D('',#1537,#1538,#1539);
#1537 = CARTESIAN_POINT('',(-3.30322,-2.15,1.38745));
#1538 = DIRECTION('',(-1.,1.224646799147E-16,0.));
#1539 = DIRECTION('',(2.719262146894E-32,2.22044604925E-16,-1.));
#1540 = ADVANCED_FACE('',(#1541),#1552,.F.);
#1541 = FACE_BOUND('',#1542,.T.);
#1542 = EDGE_LOOP('',(#1543,#1544,#1545,#1546));
#1543 = ORIENTED_EDGE('',*,*,#1384,.F.);
#1544 = ORIENTED_EDGE('',*,*,#1221,.T.);
#1545 = ORIENTED_EDGE('',*,*,#1512,.F.);
#1546 = ORIENTED_EDGE('',*,*,#1547,.F.);
#1547 = EDGE_CURVE('',#1377,#1513,#1548,.T.);
#1548 = LINE('',#1549,#1550);
#1549 = CARTESIAN_POINT('',(-3.48,-1.64364,0.8161));
#1550 = VECTOR('',#1551,1.);
#1551 = DIRECTION('',(1.,-1.224646799147E-16,0.));
#1552 = CYLINDRICAL_SURFACE('',#1553,0.14364);
#1553 = AXIS2_PLACEMENT_3D('',#1554,#1555,#1556);
#1554 = CARTESIAN_POINT('',(-3.48,-1.64364,0.67246));
#1555 = DIRECTION('',(-1.,1.224646799147E-16,0.));
#1556 = DIRECTION('',(1.224646799147E-16,1.,-0.));
#1557 = ADVANCED_FACE('',(#1558),#1569,.F.);
#1558 = FACE_BOUND('',#1559,.F.);
#1559 = EDGE_LOOP('',(#1560,#1561,#1562,#1563));
#1560 = ORIENTED_EDGE('',*,*,#1399,.F.);
#1561 = ORIENTED_EDGE('',*,*,#1301,.T.);
#1562 = ORIENTED_EDGE('',*,*,#1502,.T.);
#1563 = ORIENTED_EDGE('',*,*,#1564,.F.);
#1564 = EDGE_CURVE('',#1400,#1495,#1565,.T.);
#1565 = LINE('',#1566,#1567);
#1566 = CARTESIAN_POINT('',(-3.48,1.64364,0.8161));
#1567 = VECTOR('',#1568,1.);
#1568 = DIRECTION('',(1.,-1.224646799147E-16,-0.));
#1569 = CYLINDRICAL_SURFACE('',#1570,0.14364);
#1570 = AXIS2_PLACEMENT_3D('',#1571,#1572,#1573);
#1571 = CARTESIAN_POINT('',(-3.48,1.64364,0.67246));
#1572 = DIRECTION('',(-1.,1.224646799147E-16,0.));
#1573 = DIRECTION('',(-1.224646799147E-16,-1.,0.));
#1574 = ADVANCED_FACE('',(#1575),#1591,.T.);
#1575 = FACE_BOUND('',#1576,.T.);
#1576 = EDGE_LOOP('',(#1577,#1583,#1584,#1590));
#1577 = ORIENTED_EDGE('',*,*,#1578,.T.);
#1578 = EDGE_CURVE('',#1358,#1462,#1579,.T.);
#1579 = LINE('',#1580,#1581);
#1580 = CARTESIAN_POINT('',(-3.48,-2.15,1.18745));
#1581 = VECTOR('',#1582,1.);
#1582 = DIRECTION('',(1.,-1.224646799147E-16,0.));
#1583 = ORIENTED_EDGE('',*,*,#1459,.F.);
#1584 = ORIENTED_EDGE('',*,*,#1585,.F.);
#1585 = EDGE_CURVE('',#1360,#1460,#1586,.T.);
#1586 = LINE('',#1587,#1588);
#1587 = CARTESIAN_POINT('',(-3.48,-2.15,1.38745));
#1588 = VECTOR('',#1589,1.);
#1589 = DIRECTION('',(1.,-1.224646799147E-16,0.));
#1590 = ORIENTED_EDGE('',*,*,#1357,.F.);
#1591 = PLANE('',#1592);
#1592 = AXIS2_PLACEMENT_3D('',#1593,#1594,#1595);
#1593 = CARTESIAN_POINT('',(-2.794438824967,-2.15,0.302815379349));
#1594 = DIRECTION('',(-1.224646799147E-16,-1.,0.));
#1595 = DIRECTION('',(0.,0.,1.));
#1596 = ADVANCED_FACE('',(#1597),#1608,.F.);
#1597 = FACE_BOUND('',#1598,.F.);
#1598 = EDGE_LOOP('',(#1599,#1600,#1606,#1607));
#1599 = ORIENTED_EDGE('',*,*,#1433,.T.);
#1600 = ORIENTED_EDGE('',*,*,#1601,.T.);
#1601 = EDGE_CURVE('',#1426,#1470,#1602,.T.);
#1602 = LINE('',#1603,#1604);
#1603 = CARTESIAN_POINT('',(-3.48,2.15,1.38745));
#1604 = VECTOR('',#1605,1.);
#1605 = DIRECTION('',(1.,-1.224646799147E-16,0.));
#1606 = ORIENTED_EDGE('',*,*,#1469,.F.);
#1607 = ORIENTED_EDGE('',*,*,#1585,.F.);
#1608 = PLANE('',#1609);
#1609 = AXIS2_PLACEMENT_3D('',#1610,#1611,#1612);
#1610 = CARTESIAN_POINT('',(-3.48,-2.15,1.38745));
#1611 = DIRECTION('',(2.719262146894E-32,2.22044604925E-16,-1.));
#1612 = DIRECTION('',(1.,-1.224646799147E-16,0.));
#1613 = ADVANCED_FACE('',(#1614),#1625,.F.);
#1614 = FACE_BOUND('',#1615,.F.);
#1615 = EDGE_LOOP('',(#1616,#1622,#1623,#1624));
#1616 = ORIENTED_EDGE('',*,*,#1617,.T.);
#1617 = EDGE_CURVE('',#1417,#1478,#1618,.T.);
#1618 = LINE('',#1619,#1620);
#1619 = CARTESIAN_POINT('',(-3.48,2.15,1.18745));
#1620 = VECTOR('',#1621,1.);
#1621 = DIRECTION('',(1.,-1.224646799147E-16,-0.));
#1622 = ORIENTED_EDGE('',*,*,#1477,.F.);
#1623 = ORIENTED_EDGE('',*,*,#1601,.F.);
#1624 = ORIENTED_EDGE('',*,*,#1425,.F.);
#1625 = PLANE('',#1626);
#1626 = AXIS2_PLACEMENT_3D('',#1627,#1628,#1629);
#1627 = CARTESIAN_POINT('',(-2.794438824967,2.15,0.302815379349));
#1628 = DIRECTION('',(-1.224646799147E-16,-1.,0.));
#1629 = DIRECTION('',(0.,0.,1.));
#1630 = ADVANCED_FACE('',(#1631),#1642,.T.);
#1631 = FACE_BOUND('',#1632,.T.);
#1632 = EDGE_LOOP('',(#1633,#1634,#1635,#1636));
#1633 = ORIENTED_EDGE('',*,*,#1416,.F.);
#1634 = ORIENTED_EDGE('',*,*,#1617,.T.);
#1635 = ORIENTED_EDGE('',*,*,#1485,.T.);
#1636 = ORIENTED_EDGE('',*,*,#1637,.F.);
#1637 = EDGE_CURVE('',#1409,#1486,#1638,.T.);
#1638 = LINE('',#1639,#1640);
#1639 = CARTESIAN_POINT('',(-3.48,1.77865,0.8161));
#1640 = VECTOR('',#1641,1.);
#1641 = DIRECTION('',(1.,-1.224646799147E-16,-0.));
#1642 = CYLINDRICAL_SURFACE('',#1643,0.37135);
#1643 = AXIS2_PLACEMENT_3D('',#1644,#1645,#1646);
#1644 = CARTESIAN_POINT('',(-3.48,1.77865,1.18745));
#1645 = DIRECTION('',(-1.,1.224646799147E-16,0.));
#1646 = DIRECTION('',(-1.224646799147E-16,-1.,0.));
#1647 = ADVANCED_FACE('',(#1648),#1654,.T.);
#1648 = FACE_BOUND('',#1649,.T.);
#1649 = EDGE_LOOP('',(#1650,#1651,#1652,#1653));
#1650 = ORIENTED_EDGE('',*,*,#1408,.F.);
#1651 = ORIENTED_EDGE('',*,*,#1637,.T.);
#1652 = ORIENTED_EDGE('',*,*,#1494,.T.);
#1653 = ORIENTED_EDGE('',*,*,#1564,.F.);
#1654 = PLANE('',#1655);
#1655 = AXIS2_PLACEMENT_3D('',#1656,#1657,#1658);
#1656 = CARTESIAN_POINT('',(-3.48,1.77865,0.8161));
#1657 = DIRECTION('',(-0.,0.,-1.));
#1658 = DIRECTION('',(-1.224646799147E-16,-1.,0.));
#1659 = ADVANCED_FACE('',(#1660),#1671,.T.);
#1660 = FACE_BOUND('',#1661,.F.);
#1661 = EDGE_LOOP('',(#1662,#1663,#1669,#1670));
#1662 = ORIENTED_EDGE('',*,*,#1376,.F.);
#1663 = ORIENTED_EDGE('',*,*,#1664,.T.);
#1664 = EDGE_CURVE('',#1368,#1522,#1665,.T.);
#1665 = LINE('',#1666,#1667);
#1666 = CARTESIAN_POINT('',(-3.48,-1.77865,0.8161));
#1667 = VECTOR('',#1668,1.);
#1668 = DIRECTION('',(1.,-1.224646799147E-16,0.));
#1669 = ORIENTED_EDGE('',*,*,#1521,.T.);
#1670 = ORIENTED_EDGE('',*,*,#1547,.F.);
#1671 = PLANE('',#1672);
#1672 = AXIS2_PLACEMENT_3D('',#1673,#1674,#1675);
#1673 = CARTESIAN_POINT('',(-3.48,-1.77865,0.8161));
#1674 = DIRECTION('',(0.,0.,-1.));
#1675 = DIRECTION('',(-1.224646799147E-16,-1.,0.));
#1676 = ADVANCED_FACE('',(#1677),#1683,.T.);
#1677 = FACE_BOUND('',#1678,.F.);
#1678 = EDGE_LOOP('',(#1679,#1680,#1681,#1682));
#1679 = ORIENTED_EDGE('',*,*,#1367,.F.);
#1680 = ORIENTED_EDGE('',*,*,#1578,.T.);
#1681 = ORIENTED_EDGE('',*,*,#1529,.F.);
#1682 = ORIENTED_EDGE('',*,*,#1664,.F.);
#1683 = CYLINDRICAL_SURFACE('',#1684,0.37135);
#1684 = AXIS2_PLACEMENT_3D('',#1685,#1686,#1687);
#1685 = CARTESIAN_POINT('',(-3.48,-1.77865,1.18745));
#1686 = DIRECTION('',(-1.,1.224646799147E-16,0.));
#1687 = DIRECTION('',(1.224646799147E-16,1.,-0.));
#1688 = ( GEOMETRIC_REPRESENTATION_CONTEXT(3) 
GLOBAL_UNCERTAINTY_ASSIGNED_CONTEXT((#1692)) 
GLOBAL_UNIT_ASSIGNED_CONTEXT((#1689,#1690,#1691)) REPRESENTATION_CONTEXT
('Context #1','3D Context with UNIT and UNCERTAINTY') );
#1689 = ( LENGTH_UNIT() NAMED_UNIT(*) SI_UNIT(.MILLI.,.METRE.) );
#1690 = ( NAMED_UNIT(*) PLANE_ANGLE_UNIT() SI_UNIT($,.RADIAN.) );
#1691 = ( NAMED_UNIT(*) SI_UNIT($,.STERADIAN.) SOLID_ANGLE_UNIT() );
#1692 = UNCERTAINTY_MEASURE_WITH_UNIT(LENGTH_MEASURE(2.E-06),#1689,
  'distance_accuracy_value','confusion accuracy');
#1693 = PRODUCT_RELATED_PRODUCT_CATEGORY('part',$,(#1161));
#1694 = MECHANICAL_DESIGN_GEOMETRIC_PRESENTATION_REPRESENTATION('',(
    #1695),#614);
#1695 = STYLED_ITEM('color',(#1696),#15);
#1696 = PRESENTATION_STYLE_ASSIGNMENT((#1697,#1703));
#1697 = SURFACE_STYLE_USAGE(.BOTH.,#1698);
#1698 = SURFACE_SIDE_STYLE('',(#1699));
#1699 = SURFACE_STYLE_FILL_AREA(#1700);
#1700 = FILL_AREA_STYLE('',(#1701));
#1701 = FILL_AREA_STYLE_COLOUR('',#1702);
#1702 = COLOUR_RGB('',0.160784315601,0.160784315601,0.160784315601);
#1703 = CURVE_STYLE('',#1704,POSITIVE_LENGTH_MEASURE(0.1),#1702);
#1704 = DRAUGHTING_PRE_DEFINED_CURVE_FONT('continuous');
#1705 = MECHANICAL_DESIGN_GEOMETRIC_PRESENTATION_REPRESENTATION('',(
    #1706),#1151);
#1706 = STYLED_ITEM('color',(#1707),#628);
#1707 = PRESENTATION_STYLE_ASSIGNMENT((#1708,#1714));
#1708 = SURFACE_STYLE_USAGE(.BOTH.,#1709);
#1709 = SURFACE_SIDE_STYLE('',(#1710));
#1710 = SURFACE_STYLE_FILL_AREA(#1711);
#1711 = FILL_AREA_STYLE('',(#1712));
#1712 = FILL_AREA_STYLE_COLOUR('',#1713);
#1713 = COLOUR_RGB('',0.47058824112,0.439215698892,0.431372551983);
#1714 = CURVE_STYLE('',#1715,POSITIVE_LENGTH_MEASURE(0.1),#1713);
#1715 = DRAUGHTING_PRE_DEFINED_CURVE_FONT('continuous');
#1716 = MECHANICAL_DESIGN_GEOMETRIC_PRESENTATION_REPRESENTATION('',(
    #1717),#1688);
#1717 = STYLED_ITEM('color',(#1718),#1165);
#1718 = PRESENTATION_STYLE_ASSIGNMENT((#1719,#1724));
#1719 = SURFACE_STYLE_USAGE(.BOTH.,#1720);
#1720 = SURFACE_SIDE_STYLE('',(#1721));
#1721 = SURFACE_STYLE_FILL_AREA(#1722);
#1722 = FILL_AREA_STYLE('',(#1723));
#1723 = FILL_AREA_STYLE_COLOUR('',#1713);
#1724 = CURVE_STYLE('',#1725,POSITIVE_LENGTH_MEASURE(0.1),#1713);
#1725 = DRAUGHTING_PRE_DEFINED_CURVE_FONT('continuous');
ENDSEC;
END-ISO-10303-21;
